<?xml version="1.0" encoding="UTF-8" standalone="no"?>
<svg
   xmlns:dc="http://purl.org/dc/elements/1.1/"
   xmlns:cc="http://creativecommons.org/ns#"
   xmlns:rdf="http://www.w3.org/1999/02/22-rdf-syntax-ns#"
   xmlns:svg="http://www.w3.org/2000/svg"
   xmlns="http://www.w3.org/2000/svg"
   xmlns:xlink="http://www.w3.org/1999/xlink"
   xmlns:sodipodi="http://sodipodi.sourceforge.net/DTD/sodipodi-0.dtd"
   xmlns:inkscape="http://www.inkscape.org/namespaces/inkscape"
   width="881.11835"
   height="421.93082"
   version="1.1"
   id="svg57"
   sodipodi:docname="naruto-shippuden-seeklogo.com.svg"
   inkscape:version="1.0.1 (3bc2e813f5, 2020-09-07)">
  <metadata
     id="metadata61">
    <rdf:RDF>
      <cc:Work
         rdf:about="">
        <dc:format>image/svg+xml</dc:format>
        <dc:type
           rdf:resource="http://purl.org/dc/dcmitype/StillImage" />
      </cc:Work>
    </rdf:RDF>
  </metadata>
  <sodipodi:namedview
     pagecolor="#ffffff"
     bordercolor="#666666"
     borderopacity="1"
     objecttolerance="10"
     gridtolerance="10"
     guidetolerance="10"
     inkscape:pageopacity="0"
     inkscape:pageshadow="2"
     inkscape:window-width="2560"
     inkscape:window-height="1376"
     id="namedview59"
     showgrid="false"
     inkscape:lockguides="false"
     inkscape:zoom="1.588509"
     inkscape:cx="440.5591"
     inkscape:cy="210.97311"
     inkscape:window-x="0"
     inkscape:window-y="0"
     inkscape:window-maximized="1"
     inkscape:current-layer="svg57" />
  <defs
     id="defs21">
    <linearGradient
       id="prefix__b">
      <stop
         offset="0"
         stop-color="#170a88"
         id="stop2" />
      <stop
         offset=".5"
         stop-color="#0784be"
         id="stop4" />
      <stop
         offset="1"
         stop-color="#1ca2ce"
         id="stop6" />
    </linearGradient>
    <linearGradient
       id="prefix__a">
      <stop
         offset="0"
         stop-color="#ffe100"
         id="stop9" />
      <stop
         offset="1"
         stop-color="#d20000"
         id="stop11" />
    </linearGradient>
    <linearGradient
       xlink:href="#prefix__a"
       id="prefix__c"
       gradientUnits="userSpaceOnUse"
       gradientTransform="translate(-21.599926,-20.765887)"
       x1="34.632999"
       y1="172.798"
       x2="182.827"
       y2="172.798" />
    <linearGradient
       xlink:href="#prefix__a"
       id="prefix__d"
       gradientUnits="userSpaceOnUse"
       gradientTransform="translate(-21.599926,-20.765887)"
       x1="168.412"
       y1="174.067"
       x2="301.39801"
       y2="174.067" />
    <linearGradient
       xlink:href="#prefix__a"
       id="prefix__e"
       gradientUnits="userSpaceOnUse"
       gradientTransform="translate(-21.599926,-20.765887)"
       x1="299.73401"
       y1="176.814"
       x2="480"
       y2="176.814" />
    <linearGradient
       xlink:href="#prefix__a"
       id="prefix__f"
       gradientUnits="userSpaceOnUse"
       gradientTransform="translate(-21.599926,-20.765887)"
       x1="449.85199"
       y1="173.588"
       x2="583.03101"
       y2="173.588" />
    <linearGradient
       xlink:href="#prefix__a"
       id="prefix__g"
       gradientUnits="userSpaceOnUse"
       gradientTransform="translate(-21.599926,-20.765887)"
       x1="584.07001"
       y1="182.187"
       x2="695.58197"
       y2="182.187" />
    <linearGradient
       xlink:href="#prefix__a"
       id="prefix__h"
       gradientUnits="userSpaceOnUse"
       gradientTransform="translate(-21.599926,-20.765887)"
       x1="678.26398"
       y1="185.69099"
       x2="823.02698"
       y2="185.69099" />
    <linearGradient
       xlink:href="#prefix__b"
       id="prefix__i"
       gradientUnits="userSpaceOnUse"
       gradientTransform="translate(-21.599926,-20.765887)"
       x1="638.22101"
       y1="258"
       x2="638.22101"
       y2="416.74399" />
  </defs>
  <path
     d="m 714.21307,2.2961131 c -81.818,1.66 -175.276,34.5799999 -251.921,60.7929999 l 14.302,15.47 c 39.197,-16.625 83.515,-28.421 125.357,-35.791 36.548,-6.437 76.907,-15.87 111.313,1.031 15.137,7.435 16.2,17.748 16.2,24.16 l 48.937,5.185 c 4.908,-2.712 8.978,-12.757 11,-17.597 8.071,-19.322 -6.596,-41.898 -26.5,-47.0939999 -15.904,-4.151 -32.298,-6.489 -48.688,-6.156 z M 495.79007,103.88611 c 2.788,-1.352 6.87,-3.742 9.466,-2.652 l 5.531,-20.971997 c -7.823,0.504 -18.469,3.93 -23.358,7.742 z m 94.83,58.973 c -8.271,4.856 -13.594,8.375 -21.062,15.733 l -2.532,22.642 c 3.87,-1.964 19.013,-10.192 21.375,-14.625 z m -202.22,28.375 15.22,12.25 c 5.78,-2.8 12.865,-6.021 18.03,-10.03 l -3.25,-16.938 c -7.734,4.498 -20,8.46 -30,14.718 z m 175.063,27.938 -1.625,19.469 c 5.949,-1.523 22.738,-10.684 25.813,-15.407 l -2.219,-17.468 c -6.094,2.526 -21.484,13.011 -21.969,13.406 z m -358.135,52.062 c 4.134,-3.87 20.53,-22.862 23.073,-25.36 l -10,-18.075 z m 123.073,3.654 c -4.47,2.358 -37.172,-25.421 -37.172,-25.421 l -51.229,22.464 c -10,23.99 20.715,32.978 44.574,33.278 27.376,0.344 98.508,-18.443 114.71,-25.83 l -26.465,-14.242 c -13.92,3.35 -30.424,6.74 -44.418,9.751 z m -292.999996,78.815 c -5.573,13.412 -0.71,29.382 10.094,38.844 18,15.763 43.078,17.69 65.935996,18.34 62.455,1.774 123.65,-13.784 183.266,-30.64 32.078,-9.07 63.704,-19.013 94.579,-32.294 5.285,-2.273 3.205,-15.914 -4.344,-16.719 -12.208,-0.286 -24.754,7.378 -36.245,10.818 -63.265,18.94 -128.264,38.522 -194.907,35.563 -18.773,-0.833 -40.047,-4.862 -52.567,-20.38 -3.979996,-4.935 -6.846996,-13.94 -6.311996,-20.094 1.653,-19.033 32.780996,-57.25 43.499996,-65.907 l -33.223,-7.37 c -28.986996,28.336 -53.992996,51.853 -69.776996,89.84 z m 322.999996,-45.6 c -60,13.131 -144.19,27.68 -164.343,-1.827 -3.638,-4.938 1.681,-18.051 6.115,-25.042 l -39.65,-6.707 c -17.547,16.707 -34.577,44.79 -23.372,63.957 3.389,5.797 13.124,11.397 19.156,13.25 41.372,12.714 85.222,3.518 126.501,-4.947 40.901,-8.389 86.622,-22.422 125.593,-37.305 l -5.465,-18.248 c -14.535,2.978 -30.763,11.246 -44.535,16.87 z m 305.5,-248.368997 c 15.291,0.532 24.261,12.126 34.5,21.5 l -24.25,6.25 z"
     fill="#e543a7"
     stroke="#ffffff"
     stroke-width="4.5"
     id="path23" />
  <path
     d="m 159.95507,41.857113 c -10.557,2.733 -10.18,16.852 -16.094,24.719 -6.625,8.813 -13.74,17.548 -16.406,28.688 -1.473,6.152997 -1.44,14.113997 -5.875,18.467997 -6.664,6.544 -2.859,16.106 -1.188,23.563 0.707,3.15 0.407,6.446 0.094,9.656 -4.417,-9.344 -7.218,-20.931 -1.781,-30.687 6.065,-10.884 6.368,-26.681997 -3.75,-35.656997 -7.998,-7.093 -19.315996,-10.637 -29.624996,-10.156 -4.541,0.212 -7.412,8.134 -10.938,6.75 -3.525,-1.384 -5.572,-4.549 -8.645,-6.582 -3.073,-2.033 -8.491,6.004 -10.792,9.988 -7.141,12.366 -20.145,24.630997 -17.469,40.187997 2.527,14.688 -3.408,28.674 -5.1,43.08 -1.38,11.755 -1.883,24.776 -5.147,36.17 -0.714,2.493 -3.136,2.75 -3.315,6.469 -0.229,4.737 0.57,9.628 -3.402,13.53 -5.053,4.966 1.55,12.36 -1.11,19 -6.458,16.124 -2.543,35.66 7.168,50.032 4.388,6.494 5.867,7.43 11.82,4.158 7.474,-5.405 25.815,-5.532 31.836,-13.22 2.153,-2.75 -1.08,-6.796 0.563,-8.625 3.869,-4.31 15.372,-9.657 10.937,-16.938 -1.609,-2.642 -2.962,-4.753 -1.656,-7.781 1.633,-3.787 1.062,-13.556 3.281,-12 6.887,4.826 10.284,23.518 19.249996,33.25 5.172,5.767 11.28,13.543 19,14 7.413,0.439 13.558,-6.706 21.188,-7.063 3.177,-0.148 8.004,-3.985 10.093,-1.593 4.733,5.417 10.147,10.155 15.125,15.343 4.869,5.074 12.425,3.31 18.5,0.594 7.624,-3.408 20.853,-2.864 22.895,-12.909 1.669,-8.207 6.188,-15.026 7.657,-23.382 1.628,-9.26 1.864,-21.07 9.51,-27.209 2.385,-1.914 9.24,-5.06 9.688,-2.75 2.509,12.894 -4.18,29.73 2.45,43.593 4.68,9.789 6.203,22.536 14.707,29.313 5.953,4.745 12.3,-4.036 15.28,-9.343 4.977,-8.86 12.612,-16.176 19.375,-24.042 1.101,-1.28 2.37,-4.195 3.22,-3.896 1.123,0.395 2.002,3.992 3.196,5.905 5.871,9.398 14.645,17.897 25.522,19.908 14.407,2.662 25.47,-11.258 28.813,-24.157 0.84,-3.238 -0.217,-9.22 4.695,-4.605 9.776,9.186 21.47,16.93 33.375,23.385 6.914,3.748 14.892,5.22 21.93,8.689 9.733,4.798 19.737,11.714 31.553,9.585 35.459,-6.391 71.595,-10.339 107.228,-16.054 10.058,-4.734 15.894,-15.457 20.594,-25.031 2.866,-5.838 2.207,-12.528 -1.563,-18.094 -2.465,-3.64 1.105,-8.49 0.563,-12.968 -0.727,-5.999 1.873,-11.561 3.156,-17.22 0.524,-2.309 -0.73,-5.526 -0.446,-7.874 0.971,-7.994 4.269,-15.013 5.29,-23.094 1.208,-9.555 5.815,-18.119 7.969,-27.406 0.537,-2.318 3.773,0.797 5.843,1.094 4.698,0.672 9.376,-2.734 13.344,-2 4.381,0.81 1.615,8.033 3.188,11.968 2.38,5.956 -2.459,10.872 -2.838,16.93 -0.741,11.836 -0.37,23.84 -1.975,35.594 -0.437,3.201 -1.539,6.305 -1.812,9.539 -0.72,8.51 0.43,17.278 1.04,25.879 0.613,8.628 0.737,17.094 2.323,25.453 l 15.418,12.48 95.531,0.969 c 12.17,3.585 25.594,0.21 36.906,-4.719 16.418,-7.151 28.503,-20.582 42.125,-31.687 6.045,-4.928 6.715,-13.545 12.907,-18.469 17.652,-14.039 23.897,-38.209 24.625,-60.187 0.803,-24.281 -4.627,-49.444 -20.348,-68.434 -6.144,-7.422997 -14.81,-15.602997 -20.215,-20.503997 -5.404,-4.901 -9.253,-1.528 -13.41,-2.587 -3.555,-0.907 -5.509,-2.47 -9.211,-2.772 -4.604,-0.376 -10.932,0.839 -15.136,3.11 -3.963,2.141 -8.248,2.789 -12.712,0.187 -12.493,-7.285 -29.406,1.044 -37.312,12.25 -2.482,3.518 -2.598,1.328 -3.688,-1.563 -2.52,-6.687 -4.526,-13.409 -10.914,-16.007 -5.599,-2.277 -13.903,-6.428 -19.407,-8.574 -4.33,-1.688 -10.925,3.19 -17.236,1.885 -9.42,-1.946 -18.737,1.994 -28.323,2.704 -10.746,0.796 -21.949,1.13 -31.766,5.846 -1.749,0.84 -3.434,2.55 -5.479,-0.41 -5.116,-7.404 -10.26,-11.421 -15.098,-17.475 -3.924,-4.91 -19.731,6.878 -28.308,9.906 -13.911,4.912 -15.374,23.255 -19.281,35.999997 -8.553,27.9 -12.82,67.596 -22.438,84.625 -1.583,2.804 -2.31,-5.225 -1.688,-12.386 0.25,-2.88 1.162,-5.52 1.438,-7.458 0.927,-6.494 -1.828,-12.812 0.53,-19.531 5.555,-15.833 5.51,-33.878 -0.967,-49.812 -1.953,-4.806997 -6.035,-8.664997 -7.656,-13.124997 -3.266,-8.986 -14.774,-9.159 -22.045,-12.538 -12.225,-5.681 -13.757,-4.38 -18.268,2.319 -4.24,6.298 -7.504,13.176 -10.812,19.906 -8.799,-17.886 -27.12,-28.102 -45.254,-34.677 -18.959,-6.872 -39.957,-14.765 -59.934,-9.26 -20.1,5.538 -36.05,24.431 -38.562,45.406 -0.362,3.018997 -0.476,4.177997 -1.532,0.531 -0.756,-2.613 -2.28,-4.728 -4.164,-6.483 -1.986,-1.85 -6.527,-2.916 -6.68,-4.517 -0.172,-1.82 5.32,-5.724 5.862,-8.906 0.704,-4.137 -2.186,-7.798 -6.205,-10.188 -9.543,-5.673 -16.644,-19.457 -28.938,-17.718 -9.772,1.382 -17.313,9.106 -25.78,13.875 -6.595,3.713 -9.629,11.78 -16.907,15.218 -8.263,3.904 -13.009,13.319 -16.438,21.593997 -1.812,4.375 3.717,7.164 1.658,11.95 -5.653,13.14 -8.743,27.476 -14.095,40.863 1.822,-20.489 4.028,-41.104 6.125,-61.437997 1.777,-17.232 -13.056,-30.166 -20.031,-44.969 -1.616,-3.429 -5.281,-8.394 -9.219,-7.375 z m 521.437,97.906997 c -1.72,6.538 -3.654,12.917 -6.718,19 0.813,-6.066 1.605,-12.057 2.156,-18.157 1.52,-0.223 3.073,-0.423 4.562,-0.843 z m 75.97,12.875 c 6.014,0.884 2.275,10.3 3.718,15 1.731,5.64 2.158,11.782 -1.281,17.343 -5.975,9.661 -6.341,23.871 -17.232,30.202 -2.363,1.374 -6.97,6.642 -7.768,4.83 -2.612,-5.928 1.06,-14.536 1.03,-22 -0.049,-11.301 5.332,-22.075 5.345,-33.594 0.008,-7.33 9.649,-12.743 16.187,-11.781 z m -325.063,8.062 c 0.84,12.296 0.326,24.668 -0.563,36.844 0.485,11.502 2.79,22.829 5.844,33.906 -16.839,-13.655 -35.59,-26.592 -51.5,-40.281 11.82,-5.536 21.59,-14.439 33.149,-20.486 4.705,-3.072 9.248,-6.522 13.038,-10.64 z m 233.312,47.625 c 2.083,-1.594 2.929,12.944 1.969,19.625 -0.836,5.822 0.081,11.889 1.781,17.531 -3.273,-1.358 -7.5,-1.291 -6.656,-6.562 1.598,-9.98 -0.082,-28.306 2.906,-30.594 z"
     id="path25" />
  <path
     d="m 143.71307,23.046113 c -10.557,2.733 -10.18,16.853 -16.093,24.72 -6.625,8.813 -13.74,17.548 -16.407,28.687 -1.472,6.154 -1.44,14.115 -5.875,18.469 -6.663996,6.543997 -2.859,16.104997 -1.187,23.561997 0.706,3.151 0.407,6.447 0.094,9.657 -4.417996,-9.344 -7.217996,-20.932 -1.782,-30.687997 6.065,-10.883 6.368,-26.682 -3.749996,-35.656 -7.997,-7.094 -19.316,-10.637 -29.625,-10.156 -4.54,0.211 -7.412,8.133 -10.937,6.75 -3.525,-1.384 -5.572,-4.55 -8.645,-6.582 -3.073,-2.033 -8.492,6.004 -10.793,9.988 -7.14,12.366 -20.145,24.63 -17.468,40.186997 2.527,14.689 -3.408,28.674 -5.1,43.08 -1.381,11.755 -1.884,24.777 -5.148,36.17 -0.714,2.494 -3.1359996,2.75 -3.3149996,6.47 -0.228,4.737 0.57,9.628 -3.402,13.53 -5.05300002,4.966 1.55,12.36 -1.11,19 -6.458,16.123 -2.54300002,35.66 7.1679996,50.032 4.388,6.493 5.867,7.43 11.821,4.158 7.473,-5.405 25.815,-5.532 31.836,-13.22 2.152,-2.75 -1.081,-6.796 0.562,-8.626 3.87,-4.309 15.372,-9.656 10.938,-16.937 -1.61,-2.642 -2.963,-4.754 -1.657,-7.782 1.634,-3.786 1.062,-13.555 3.282,-12 6.887,4.827 10.284,23.519 19.25,33.25 5.171,5.768 11.28,13.543 18.999996,14 7.412,0.44 13.557,-6.706 21.187,-7.062 3.177,-0.149 8.004,-3.986 10.094,-1.594 4.733,5.418 10.147,10.155 15.125,15.344 4.868,5.074 12.424,3.31 18.5,0.594 7.623,-3.409 20.853,-2.864 22.895,-12.909 1.668,-8.208 6.187,-15.026 7.656,-23.382 1.628,-9.26 1.864,-21.071 9.511,-27.21 2.385,-1.913 9.238,-5.06 9.688,-2.75 2.508,12.895 -4.18,29.73 2.449,43.593 4.68,9.79 6.204,22.537 14.707,29.314 5.953,4.745 12.3,-4.037 15.281,-9.344 4.976,-8.86 12.612,-16.176 19.374,-24.041 1.102,-1.281 2.37,-4.196 3.22,-3.896 1.123,0.395 2.002,3.992 3.197,5.904 5.87,9.398 14.645,17.898 25.522,19.908 14.406,2.662 25.469,-11.258 28.812,-24.156 0.84,-3.239 -0.217,-9.22 4.695,-4.605 9.776,9.185 21.47,16.93 33.375,23.384 6.914,3.749 14.892,5.22 21.93,8.69 9.733,4.798 19.738,11.714 31.554,9.584 35.458,-6.39 71.595,-10.338 107.228,-16.053 10.057,-4.734 15.894,-15.457 20.593,-25.031 2.866,-5.839 2.207,-12.528 -1.562,-18.094 -2.465,-3.64 1.105,-8.49 0.562,-12.968 -0.726,-6 1.873,-11.562 3.157,-17.22 0.523,-2.31 -0.731,-5.527 -0.446,-7.875 0.97,-7.994 4.268,-15.013 5.29,-23.093 1.207,-9.555 5.815,-18.12 7.968,-27.407 0.537,-2.317 3.773,0.798 5.844,1.094 4.698,0.673 9.375,-2.734 13.344,-2 4.38,0.81 1.615,8.034 3.187,11.969 2.38,5.956 -2.459,10.872 -2.838,16.93 -0.74,11.835 -0.37,23.84 -1.974,35.594 -0.437,3.2 -1.54,6.305 -1.813,9.538 -0.72,8.51 0.43,17.279 1.04,25.88 0.613,8.628 0.738,17.093 2.324,25.453 l 15.417,12.48 95.532,0.969 c 12.17,3.585 25.593,0.209 36.906,-4.72 16.417,-7.15 28.502,-20.581 42.125,-31.687 6.045,-4.928 6.715,-13.545 12.906,-18.468 17.653,-14.04 23.898,-38.21 24.625,-60.188 0.804,-24.28 -4.627,-49.443 -20.347,-68.433997 -6.145,-7.423 -14.811,-15.602 -20.215,-20.503 -5.405,-4.902 -9.254,-1.528 -13.41,-2.588 -3.555,-0.906 -5.51,-2.469 -9.212,-2.771 -4.604,-0.376 -10.931,0.838 -15.135,3.11 -3.963,2.14 -8.249,2.789 -12.712,0.186 -12.494,-7.284 -29.407,1.045 -37.313,12.25 -2.482,3.518 -2.597,1.329 -3.687,-1.562 -2.52,-6.688 -4.527,-13.41 -10.914,-16.007 -5.6,-2.277 -13.903,-6.428 -19.408,-8.575 -4.329,-1.688 -10.925,3.19 -17.235,1.886 -9.42,-1.947 -18.738,1.994 -28.324,2.704 -10.745,0.795 -21.948,1.13 -31.766,5.846 -1.748,0.84 -3.433,2.55 -5.478,-0.41 -5.117,-7.404 -10.26,-11.421 -15.098,-17.476 -3.925,-4.91 -19.732,6.878 -28.308,9.907 -13.912,4.912 -15.374,23.255 -19.282,36 -8.553,27.898997 -12.82,67.595997 -22.437,84.624997 -1.583,2.803 -2.31,-5.226 -1.688,-12.387 0.25,-2.88 1.161,-5.519 1.438,-7.457 0.926,-6.495 -1.829,-12.812 0.529,-19.531 5.555,-15.833 5.51,-33.877997 -0.967,-49.812997 -1.953,-4.806 -6.035,-8.665 -7.656,-13.125 -3.266,-8.985 -14.773,-9.158 -22.044,-12.537 -12.226,-5.682 -13.758,-4.38 -18.268,2.318 -4.24,6.298 -7.504,13.177 -10.813,19.907 -8.798,-17.887 -27.119,-28.103 -45.254,-34.677 -18.958,-6.873 -39.957,-14.766 -59.933,-9.26 -20.1,5.538 -36.05,24.43 -38.563,45.405 -0.361,3.02 -0.476,4.179 -1.531,0.532 -0.756,-2.613 -2.28,-4.728 -4.165,-6.483 -1.986,-1.85 -6.527,-2.917 -6.679,-4.517 -0.173,-1.82 5.319,-5.725 5.86,-8.907 0.706,-4.136 -2.184,-7.798 -6.204,-10.187 -9.542,-5.674 -16.644,-19.458 -28.937,-17.719 -9.772,1.382 -17.314,9.107 -25.781,13.875 -6.595,3.714 -9.628,11.78 -16.907,15.219 -8.263,3.903 -13.009,13.318 -16.437,21.594 -1.813,4.374 3.716,7.163 1.657,11.95 -5.653,13.139997 -8.742,27.475997 -14.095,40.861997 1.823,-20.488 4.028,-41.103997 6.125,-61.436997 1.777,-17.232 -13.056,-30.166 -20.03,-44.97 -1.617,-3.428 -5.282,-8.393 -9.22,-7.374 z m 521.438,97.906997 c -1.72,6.538 -3.654,12.918 -6.719,19 0.813,-6.066 1.606,-12.056 2.156,-18.156 1.52,-0.223 3.073,-0.424 4.563,-0.844 z m 75.969,12.875 c 6.014,0.884 2.276,10.3 3.718,15 1.732,5.64 2.158,11.783 -1.28,17.344 -5.976,9.661 -6.342,23.871 -17.232,30.202 -2.364,1.374 -6.97,6.642 -7.769,4.83 -2.611,-5.929 1.061,-14.537 1.03,-22 -0.048,-11.301 5.332,-22.075 5.345,-33.595 0.008,-7.33 9.65,-12.742 16.188,-11.78 z m -325.063,8.063 c 0.84,12.295 0.326,24.667 -0.562,36.843 0.484,11.502 2.789,22.83 5.843,33.907 -16.838,-13.656 -35.59,-26.593 -51.5,-40.282 11.82,-5.536 21.591,-14.438 33.15,-20.485 4.705,-3.072 9.247,-6.522 13.038,-10.64 z m 233.313,47.625 c 2.082,-1.595 2.928,12.944 1.968,19.625 -0.836,5.822 0.081,11.888 1.782,17.53 -3.274,-1.357 -7.5,-1.29 -6.657,-6.562 1.599,-9.979 -0.082,-28.306 2.907,-30.593 z"
     id="path27" />
  <path
     d="m 144.24507,29.078113 c -2.745,0.113 -9.356,21.761 -15.47,27.531 -11.155,10.531 -12.72,26.687 -16.78,40.594 -0.563,1.929 -4.05,2.695 -4.688,4.562997 -0.862,2.524 0.868,8.431 2.063,12.562 3.238,11.2 -1.536,23.14 -1,34.594 0.187,4.005 -0.578,6.022 -2.563,-0.813 -4.028,-13.87 -11.392996,-23.052 -12.780996,-37.25 -1.081,-11.056997 8.739996,-20.910997 7.561996,-32.124997 -0.602996,-5.741 -3.792996,-11.35 -8.217996,-14.562 -5.208,-3.78 -12.568,-4.746 -19.532,-6.875 -3.541,-1.083 -6.102,4.862 -11.718,7.031 -2.708,1.046 -4.944,0.363 -8.032,-1.937 -5.667,-4.223 -7.113,-1.157 -12.312,6.906 -6.5,10.08 -16.572,20.703 -13.406,33.780997 2.528,10.445 -2.23,20.12 -3.47,30.406 -2.074,17.214 -5.5,32.362 -7.781,50.533 -0.19,1.517 -2.281,3.308 -2.582,4.623 -0.86,3.757 0.73,8.312 -1.074,11.563 -1.165,2.1 -3.8649996,3.878 -4.0619996,6.108 -0.475,5.37 3.2599996,5.617 1.426,10.892 -1.54,4.428 -3.906,13.588 -3.905,18.625 0.003,10.41 3.918,22.657 8.7899996,30.264 2.045,3.194 3.484,3.584 5.869,2.693 3.699,-1.38 14.305,-5.629 17.882,-6.582 1.915,-0.51 8.446,-2.103 9.938,-3.36 2.45,-2.066 -1.345,-4.774 0,-7.609 1.307,-2.754 7.298,-6.76 10,-9.027 3.924,-3.293 1.431,-4.23 -0.619,-6.811 -2.399,-3.02 0.287,-6.956 0.619,-10.191 1.027,-10.002 5.584,-19.151 6.49,-22.15 1.896,-6.273 3.67,7.239 8.729,12.492 4.499,4.672 7.743,16.256 12.688,23.62 3.932,5.854 8.824,10.707 14.515996,15.342 3.578,2.914 4.376,3.644 7.577,1.556 4.45,-2.901 22.564,-7.39 26.491,-8.483 3.613,-1.005 4.082,-3.738 5.39,-7.835 1.092,-3.419 0.726,1.415 0.588,4.644 -0.115,2.663 -1.565,4.669 0.767,6.843 4.256,3.969 11.091,11.17 14.974,14.607 4.178,3.699 8.133,0.068 13.071,-1.513 3.323,-1.064 11.636,-2.57 14.67,-4.29 4.33,-2.452 2.725,-5.235 4.361,-10.21 1.075,-3.266 3.09,-5.333 4.054,-8.594 3.411,-11.53 4.235,-24.553 9.571,-34.992 2.99,-5.848 12.7,-7.396 19.03,-9.108 2.38,-0.643 3.97,0.276 4.22,2.2 1.374,10.559 0.126,15.982 -1,25.494 -1.65,13.949 7.576,30.689 12.849,43.023 2.818,6.593 5.207,4.724 7.985,-0.16 5.34,-9.39 19.63,-25.278 26.236,-33.017 2.294,-2.687 2.66,-3.44 2.4,-6.596 -0.316,-3.798 -0.27,-7.743 0.176,-11.503 0.43,-3.625 1.706,-7.093 2.73,-10.653 1.63,-5.675 -0.661,-14.08 1.437,-14.688 2.211,-0.64 5.98,7.784 3.437,14.032 -5.174,12.72 -6.205,29.236 3.813,40.468 6.293,7.056 15.316,16.8 25.562,13.344 11.992,-4.044 16.656,-18.549 17.438,-29.875 0.592,-8.576 4.634,-2.755 8.312,-0.094 17.315,12.53 33.438,28.028 54.782,33.063 10.348,2.441 12.545,12.58 29.343,10.969 l 109.157,-16.313 c 8.808,-7.619 14.656,-15.594 18.156,-27.937 0.817,-2.881 -4.294,-5.554 -4.344,-9.688 -0.087,-7.134 1.767,-14.84 1.219,-21.937 -0.241,-3.12 2.595,-5.966 3.125,-9.125 0.345,-2.06 -0.866,-4.449 -0.375,-6.438 1.987,-8.044 4,-16.074 4.937,-24.437 1.422,-12.676 8.884,-23.056 9.375,-36.032 0.21,-5.539 4.215,0.282 6.344,1.563 2,1.202 3.07,3.009 4.969,3.25 5.56,0.706 11.756,-3.416 14.75,-2.031 1.983,0.917 5.115,4.631 5.812,7.218 0.487,1.806 -0.597,3.182 0.063,5 1.141,3.149 1.348,6.998 1.5,10.5 0.077,1.783 -1.93,4.553 -2.313,6.532 -2.633,13.589 -1.678,25.933 -2.593,39.718 -0.307,4.61 -2.47,7.35 -2.47,13.032 0,16.48 0,33.909 4.345,51.25 l 12.375,13.968 53.28,-35.156 c -4.301,-4.118 -17.982,-6.133 -18.124,-9.094 -0.503,-10.457 1.3,-20.583 2.25,-31.28 2.224,-25.051 11.012,-49.654 11.844,-75.095 0.08,-2.487 -0.111,-4.888 3.375,-4.75 7.138,0.285 14.064,-3.62 18.218,-9.53 -2.98,8.327 -5.447,16.66 -7.625,25.343 -3.467,13.824 -16.667,25.09 -18.435,39.562 -1.394,11.423 10.284,17.346 8.154,31.688 -1.83,12.323 -1.166,28.438 10.438,36.219 l 30.406,24.25 c 10.416,1.822 22.972,-0.442 32.31,-4.814 15.984,-6.812 26.703,-20.157 40.792,-30.635 3.657,-2.552 4.056,-7.622 6.398,-11.484 2.41,-3.977 6.756,-6.757 10.031,-10.192 19.045,-19.976 21.286,-50.435 17.656,-76.907 -2.755,-20.096 -13.083,-38.942997 -28.875,-51.842997 -3.126,-2.554 -6.252,-7.802 -9.873,-9.392 -2.718,-1.193 -4.317,0.865 -7.347,0.558 -2.811,-0.285 -6.38,-2.85 -9.051,-3.041 -2.67,-0.191 -6.16,-0.523 -8.018,0.239 -7.538,3.09 -10.422,4.606 -18.15,5.354 -2.38,0.23 -4.068,-4.246 -7.61,-4.374 -5.196,-0.187 -11.643,-0.43 -13.932,1.062 -6.865,4.473 -10.455,6.446 -15.303,13.116 -3.152,4.336 -4.188,9.913 -8.06,13.915 0.362,-12.126 -4.29,-22.946 -12.093,-31.906 -4.776,-4.4 -11.33,-5.997 -17.875,-7.406 -2.889,-0.623 -5.717,2.212 -8.594,1.937 -3.399,-0.325 -6.762,-1.31 -10.156,-1.344 -3.305,-0.032 -6.651,1.105 -9.844,1.407 -13.884,1.311 -27.595,2.895 -41.281,5.156 -5.276,0.871 -8.252,9.006 -11.625,14.437 0.229,-6.464 -0.378,-8.403 -3.469,-13.687 -2.584,-4.417 -8.151,-10.248 -12,-13.688 -5.548,-4.957 -9.69,1.366 -20.156,4.97 -10.031,3.452 -11.48,4.808 -15.594,16.093 -9.83,26.961 -14.166,56.515997 -22.312,83.999997 -3.81,12.853 -7.63,26.817 -12.625,33.375 -3.844,5.048 -3.884,-7.906 -4.594,-14.313 -0.614,-5.535 -2.529,-8.926 -2.656,-14.343 -0.063,-2.655 2.998,-8.438 2.156,-10.907 -2.561,-7.51 -0.714,-12.92 1,-19.53 3.617,-13.95 5.522,-29.405997 -0.844,-43.031997 -2.115,-4.528 -2.045,-8.734 -6.625,-11.375 -3.233,-1.865 1.01,-4.94 -4.187,-7.031 -7.944,-3.196 -11.751,-4.528 -19.657,-7.907 -7.905,-3.378 -12.91,13.779 -17,20.313 -4.79,7.655 -4.018,16.888 -5.437,25.499997 -0.634,-19.336997 -11.395,-38.241997 -28.938,-47.062997 -14.367,-7.223 -29.16,-13.395 -45.125,-16.593 -12.56,-2.516 -26.64,-5.073 -38.156,2.53 -8.293,5.477 -16.335,11.27 -20.906,20.345 -10.262,20.37 -5.287,43.793997 -5,65.499997 0.086,6.54 1.79,13.951 -0.75,20 -1.173,2.792 -2.822,3.154 -4,-0.22 -2.057,-5.89 -0.183,-12.155 -2,-18.155 -0.558,-1.841 -0.657,-3.697 -0.625,-5.532 0.083,-4.723 1.69,-9.43 1.094,-14.093 -1.234,-9.643 -4.526,-18.932997 -6.813,-28.281997 -1.362,-5.569 -4.781,-6.374 -10.031,-9.812 -4.728,-3.097 1.102,-8.977 2.656,-13.063 1.68,-4.417 -2.816,-5.779 -4.906,-7.406 -4.69,-3.65 -8.645,-8.253 -13.531,-11.5 -6.365,-4.228 -6.544,-5.817 -19.813,3.313 -7.145,4.916 -12.852,4.718 -19.156,15.593 -2.633,4.541 -10.22,4.922 -13.469,9.5 -3.643,3.805 -6.026,8.541 -9.469,13.688 -1.673,2.501 3.51,4.788 2.938,6.812 -5.437,19.264997 -12.051,38.369997 -20,57.781997 -1.67,4.077 -7.304,9.946 -10,12.218 2.37,-25.027 4.758,-49.9 6.281,-74.874997 0.281,-4.604 2.17,-6.703 2.375,-11.28 0.517,-11.532 -10.501,-25.531 -17.344,-37.626 -0.666,-1.178 -4.129,-8.43 -5.468,-8.375 z m 197.718,66.75 c 3.7,0.034 12.634,3.66 12.375,6.999997 -0.354,4.579 -12.367,9.643 -16.03,10.938 -1.317,0.465 2.409,-7.145 2.905,-10.594 0.348,-2.413 -1.434,-7.070997 0.094,-7.312997 0.196,-0.03 0.41,-0.033 0.656,-0.03 z m 81.25,21.124997 c -0.503,7.007 -1.282,14.143 -1.3,21.157 -0.021,7.747 0.747,15.373 0.766,23.123 0.011,4.855 -1.436,10.086 -1.31,14.939 0.428,16.326 4.706,32.32 9.563,47.906 0.841,2.699 2.908,6.536 -2.531,2.063 -24.16,-19.872 -52.07,-40.268 -67.156,-52.407 -5.912,-4.756 9.511,-6.428 18.093,-13.812 10,-8.604 17.156,-9.666 25.92,-16.934 8.739,-7.25 15.672,-16.637 17.955,-26.035 z m 316.844,10.875 c 8.851,-0.634 11.058,8.175 10.305,16.14 -0.483,5.107 3.657,12.455 2.196,17.266 -1.331,4.384 -5.187,8.977 -6.126,13.47 -2.299,11 -8.51,22.047 -18.812,28.062 -3.408,1.989 -7.982,7.864 -11.313,5.406 -8.042,-5.936 -1.748,-18.451 -2.594,-27.313 -0.777,-8.144 2.822,-15.693 4.688,-23.523 1.047,-4.393 -0.263,-9.107 0.656,-13.445 1.932,-9.118 12.292,-15.439 21,-16.063 z"
     fill="#ffffff"
     id="path29" />
  <path
     d="m 13.746074,229.87711 c 1.7,-5.423 2.548,-11.189 3.033,-16.762 0.207,-2.377 -0.887,-4.82 -0.55,-7.081 0.263,-1.772 3.177,-3.535 3.415,-5.441 0.382,-3.051 -1.122,-6.308 -0.575,-9.359 0.582,-3.253 2.434,-0.762 3.72,-6.622 2.29,-10.442 3.987,-23.919 5.063,-34.658 0.81,-8.1 2.359,-16.197 3.403,-24.164 0.977,-7.453 4.334,-15.092 2.219,-22.35 -1.7,-5.834997 -0.127,-11.610997 2.139,-17.056997 1.76,-4.231 6.385,-7.524 8.913,-11.847 1.962,-3.356 3.156,-5.814 5.298,-5.91 1.64,-0.074 3.052,1.913 5.208,2.816 3.492,1.463 7.938,-0.926 10.881,-2.179 3.517,-1.496 5.506,-4.536 8.515,-4.955 3.144,-0.437 6.496,1.285 10.128,2.776 4.845,1.99 8.49,7.388 9.613,10.567 1.124,3.18 0.642,4.561 0.207,5.671 -2.943,7.493 -3.77,13.716 -6.602,21.523997 -3.508,9.674 3.32,19.147 6.13,28.082 1.487,4.728 3.368,9.015 4.996,13.474 1.762996,4.827 3.369996,9.626 4.716996,14.703 1.326,5 2.38,11.485 4.784,15.969 1.694,3.16 2.962,-4.59 3.8,-9.515 0.334,-1.959 1.621,-3.729 1.753,-4.675 1.062,-7.63 0.256,-18.106 0.949,-26.328 0.367,-4.36 1.284,-6.765 1.457,-10.763 0.425,-9.82 -3.058,-15.08 -1.96,-21.227 0.281,-1.58 3.469,-2.751 3.758,-4.989997 1.162,-9.017 2.98,-16.728 6.783,-25.927 5.134,-12.415 9.48,-12.238 12.193,-18.05 1.42,-3.04 2.828,-5.209 4.395,-8.158 1.447,-2.72 2.003,-4.828 3.644,-4.102 1.47,0.65 7.225,10.53 9.775,14.26 3.545,5.183 5.965,11.562 6.21,17.762 0.112,2.827 -1.119,5.48 -1.464,8.466 -2.143,18.531997 -3.055,37.411997 -4.117,56.163997 -1.216,21.463 -4.139,43.234 -10.213,63.849 -1.62,5.5 -2.236,11.586 -4.074,17.394 -0.936,2.957 -2.512,7.07 -3.82,10.426 -1.626,4.17 -2.612,10.142 -7.627,11.524 -5.508,1.517 -11.45,1.932 -16.226,4.716 -8.456,4.931 -13.313,-2.37 -18.669996,-7.53 -8.074,-7.778 -10.23,-19.103 -16.361,-28.012 -2.675,-3.885 -4.735,-7.804 -6.224,-12.33 -1.376,-4.182 -1.1,-9.086 -4.419,-12.012 -1.672,-1.475 -2.519,-11.28 -4.716,-6.782 -3.309,6.772 -3.597,14.832 -6.076,22.964 -2.229,7.314 -3.922,15.588 -5.659,22.921 -0.613,2.589 -2.396,4.676 -2.648,7.094 -0.321,3.068 3.486,3.278 2.402,5.165 -1.915,3.332 -8.313,7.436 -9.543,11.223 -0.612,1.882 0.525,3.076 -2.399,4.63 -4.27,2.27 -11.251,3.924 -16.514,5.334 -1.12,0.3 -2.191,0.614 -3.017,-0.298 -7.52,-8.305 -7.23,-19.874 -6.027,-30.39 z"
     fill="url(#prefix__c)"
     id="path31"
     style="fill:url(#prefix__c)" />
  <path
     d="m 236.58007,250.13911 c -1.983,-3.384 -3.403,-7.136 -4.717,-10.866 -2.764,-7.846 -0.99,-15.92 -0.499,-24.06 0.415,-6.88 -0.432,-12.838 -0.009,-19.768 0.251,-4.112 0.178,-7.415 -5.425,-5.694 -8.935,2.744 -18.818,4.434 -26.459,9.37 -4.174,2.698 -4.54,8.486 -5.628,13.663 -1.965,9.35 -5.213,18.341 -7.557,27.522 -0.983,3.851 -3.708,6.914 -4.772,10.846 -1.21,4.47 -6.133,5.545 -11.778,6.917 -4.51,1.096 -7.72,1.796 -10.989,-0.072 -3.94,-2.25 -9.27,-5.241 -11.001,-9.123 -3.218,-7.215 2.77,-16.949 4.624,-25.079 1.862,-8.17 7.787,-17.894 2.05,-25.82 -4.494,-6.209 -1.835,-15.829 2.222,-21.524 4.147,-5.82 7.684,-11.367 12.572,-16.66 2.946,-3.19 3.354,-7.56 5.451,-11.136 3.21,-5.47 4.175,-12.558 6.736,-18.905 5.262,-13.041 9.707,-26.367 13.576,-39.036997 0.721,-2.363 -2.217,-4.157 -1.74,-6.15 0.804,-3.361 4.328,-7.254 6.395,-9.976 3.762,-4.957 10.654,-4.216 13.617,-9.697 1.634,-3.02 3.307,-5.823 6.615,-7.412 6.47,-3.108 12.16,-8.76 18.554,-11.052 5.65,-2.025 12.143,7.843 17.652,11.149 7.61,4.566 -4.617,14.874 -0.092,19.808 2.2,2.399 6.089,2.81 8.662,4.926 4.217,3.466 4.418,11.307 5.792,16.896 1.627,6.619997 5.459,13.697997 3.194,20.537997 -2.666,8.05 1.602,15.494 0.866,23.614 -0.47,5.185 1.023,9.718 3.91,13.48 4.447,5.793 -2.978,10.435 -4.925,15.559 -2.548,6.705 -0.15,14.846 -1.147,22.09 -0.87,6.318 -1.368,13.05 -3.42,18.905 -2.06,5.875 1.473,13.791 -2.687,18.553 -4.078,4.668 -7.693,10.915 -12.538,15.435 -3.51,3.273 -10.28,16.002 -12.18,12.447 -1.552,-2.904 -3.225,-6.484 -4.926,-9.687 z m -14.867,-98.897 c 3.128,-2.09 9.83,3.07 9.642,-3.157 -0.205,-6.851 0.505,-12.55 -0.866,-17.772 -1.69,-6.437 -9.02,10.999 -10.319,15.247 -0.602,1.968 -3.413,8.995 1.543,5.682 z"
     fill="url(#prefix__d)"
     id="path33"
     style="fill:url(#prefix__d)" />
  <path
     d="m 403.19807,260.35011 c -5.658,-3.713 -6.659,-3.063 -13.76,-5.12 -7.449,-2.16 -14.12,-5.23 -20.137,-9.867 -3.416,-2.635 -6.967,-4.928 -10.312,-7.105 -6.062,-3.947 -12.09,-9.792 -18.53,-13.898 -2.659,-1.695 -8.803,-6.73 -12.058,-8.689 -3.13,-1.883 -3.761,-0.216 -4.649,6.39 -1.32,9.834 -3.384,20.92 -10.192,28.58 -7.652,8.608 -18.275,-2.91 -23.882,-9.407 -6.819,-7.902 -6.008,-17.5 -4.066,-26.937 1.238,-6.011 4.428,-12.284 3.76,-18.472 -0.35,-3.26 -2.697,-6.63 -5.064,-9.66 -4.54,-5.81 -9.58,-16.027 -3.053,-23.058 3.57,-3.847 8.841,-7.595 10.739,-11.873 1.642,-3.702 0.659,-7.324 0.483,-12.223 -0.313,-8.687 -0.535,-17.202 -1.132,-25.85 -0.721,-10.44 -1.394,-20.909997 0.128,-31.321997 0.977,-6.68 4.692,-13.04 7.737,-18.382 2.04,-3.578 4.018,-7.122 8.269,-9.165 7.196,-3.457 13.359,-9.635 21.203,-9.858 7.568,-0.215 15.047,2.451 22.25,3.873 9.422,1.86 19.283,3.847 27.208,8.527 7.57,4.47 16.012,7.092 22.986,12.578 6.527,5.134 11.239,12.118 13.848,20.126 3.125,9.594 5.45,20.179997 1.108,29.930997 -2.77,6.22 -5.96,12.059 -10.763,16.251 -4.352,3.8 -8.65,7.835 -13.597,10.174 -6.13,2.899 -12.363,6.586 -18.27,10.678 -7.863,5.447 -21.968,6.711 -26.046,11.862 -2.665,3.366 9.072,10.01 14.072,13.702 11.229,8.29 23.063,16.633 33.814,25.761 8.146,6.917 17.083,12.466 25.366,19.278 5.329,4.383 9.999,8.77 15.529,12.545 6.247,4.265 16.463,12.422 22.214,17.552 l -38.056,10.402 c -10,-2.202 -13.683,-5.051 -17.147,-7.324 z m -48.83,-149.682 c 6.14,-3.865 10.907,-11.315997 1.006,-15.149997 -6.655,-2.578 -20.432,-10.298 -22.155,-7.333 -0.872,1.502 1.624,4.462 1.955,6.81 0.618,4.387 -0.91,9.172997 -1.813,13.344997 -0.817,3.769 -6.374,17.599 -0.065,14.774 7.442,-3.333 14.105,-8.06 21.072,-12.446 z"
     fill="url(#prefix__e)"
     id="path35"
     style="fill:url(#prefix__e)" />
  <path
     d="m 528.23707,250.56411 -73.95,-7.719 c -4.23,0.411 -11.668,-7.647 -13.696,-11.483 -1.986,-3.756 -3.903,-7.104 -4.717,-11.881 -0.984,-5.774 -3.881,-11.33 -4.425,-17.382 -1.028,-11.446 -4.128,-22.773 -2.922,-34.577 1.767,-17.278 -1.86,-34.92 0.86,-52.231 1.277,-8.134 2.102,-16.303997 2.786,-24.368997 0.422,-4.978 3.687,-8.46 5.731,-12.524 1.976,-3.93 3.996,-11.337 8.365,-11.112 4.147,0.214 8.924,3.204 13.203,5.022 2.75,1.168 3.512,4.455 4.998,6.736 0.994,1.525 3.855,0.838 4.681,2.704 1.628,3.674 2.997,8.66 4.785,12.89 3.091,7.311997 1.018,15.328997 0.368,22.899997 -0.59,6.884 -2.872,13.572 -3.842,20.425 -0.579,4.088 0.83,7.67 0.657,11.234 -0.129,2.65 -1.715,2.021 -1.715,8.306 0,4.7 0.662,9.131 1.463,13.731 0.674,3.862 0.578,7.818 1.039,11.707 0.666,5.624 1.847,12.476 4.628,16.891 3.865,6.137 10.562,-7.273 13.57,-11.628 4.224,-6.113 5.714,-14.485 7.684,-21.502 1.758,-6.263 2.605,-12.76 4.716,-18.838 2.01,-5.783 2.99,-12.102 4.926,-17.956 2.02,-6.1 3.035,-12.531 4.21,-18.942 1.445,-7.89 3.816,-15.819997 6.174,-23.679997 2.025,-6.755 4.68,-13.265 7.372,-20.051 0.498,-1.256 1.2,-1.95 2.3,-2.585 6.702,-3.865 11.017,-5.868 18.094,-9.113 1.632,-0.748 2.82,-0.606 3.944,0.619 4.847,5.285 10.887,10.771 11.63,17.48 1.373,12.382 -2.784,24.193 -2.956,36.479997 -0.16,11.384 -3.543,22.518 -7.078,33.244 -1.1,3.338 -2.983,6.225 -3.666,9.65 -0.795,3.983 -0.624,8.409 -1.084,12.45 -0.698,6.129 -4.23,12.958 -5,18.191 -0.163,1.114 0.915,2.524 0.671,3.62 -0.636,2.866 -2.693,5.667 -2.639,8.742 0.1,5.733 0.21,13.775 -1.052,20.026 -1.806,8.936 3.317,9.963 3.053,15.195 -0.182,3.59 -2.993,8.247 -5.5,10.985 -2.528,2.763 -5.057,6.171 -7.666,8.345 z"
     fill="url(#prefix__f)"
     id="path37"
     style="fill:url(#prefix__f)" />
  <path
     d="m 598.58207,250.66811 c -1.546,-7.563 -1.756,-15.49 -2.895,-23.217 -1.79,-12.137 -0.764,-24.598 0.933,-36.77 1.586,-11.376 0.722,-23.112 2.966,-34.306 0.773,-3.858 2.417,-7.914 2.213,-11.838 -0.18,-3.45 -1.822,-5.641 -1.511,-8.638 0.146,-1.404 1.72,-1.67 1.786,-3.473 0.101,-2.816 -5.14,-6.016 -3.014,-8.353 1.868,-2.053 4.316,-3.368 4.286,-6.732 -0.072,-8.095 -8.545,-0.182 -13.1,-0.17 -4.537,0.013 -9.356,2.494 -13.72,2.463 -2.673,-0.019 -5.207,-1.433 -7.038,-4.416 -2.16,-3.52 -6.768,-6.803 -7.013,-10.12 -0.108,-1.468 1.742,-3.192 3.252,-5.586997 2.652,-4.207 2.217,-9.342 4.781,-13.71 1.79,-3.05 3.714,-4.29 5.941,-9.32 2.227,-5.032 8.332,-8.656 15.478,-9.248 10.556,-0.873 21.223,-2.977 31.893,-3.796 2.257,-0.173 5.169,-1.28 7.83,-1.222 5.553,0.12 10.859,1.76 12.974,1.773 1.556,0.01 3.75,-1.108 4.463,-1.116 2.615,-0.028 4.942,1.28 7.49,1.71 5.466,0.923 9.37,3.5 11.728,8.63 2.219,4.826 4.185,9.468 5.223,14.955 1.292,6.837 0,14.066997 -6.046,18.440997 -4.505,3.26 -10.909,3.14 -15.366,3.012 -1.83,-0.052 -2.482,0.542 -2.816,2.932 -0.838,6.002 -1.391,13.397 -1.724,19.321 -0.432,7.696 -2.623,14.433 -3.123,21.888 -0.505,7.514 -3.904,14.138 -4.568,21.568 -0.594,6.65 -2.626,12.876 -3.419,19.285 -0.858,6.943 0.336,14.176 -1.188,20.981 -1.324,5.912 -2.473,12.212 -1.225,16.87 0.382,1.427 4.63,0.999 4.348,2.566 -0.247,1.366 -5.049,1.758 -5.089,6.203 -0.051,5.63 -5.8,10.654 -8.36,12.672 -2.561,2.017 -8.476,7.457 -12.511,6.64 -5.603,-1.133 -4.04,-1.832 -11.832,-6.74 -0.992,-0.626 -1.766,-1.862 -2.027,-3.138 z"
     fill="url(#prefix__g)"
     id="path39"
     style="fill:url(#prefix__g)" />
  <path
     d="m 668.40007,231.23411 c -4.724,-6.282 -5.238,-17.457 -4.381,-25.697 0.965,-9.285 -0.678,-17.847 -5.616,-26.061 -4.768,-7.93 1.306,-17.892 5.856,-25.164 3.148,-5.03 4.483,-10.264 7.598,-15.015 2.81,-4.284 3.026,-10.037 4.717,-15.061 1.81,-5.381 4.774,-10.251 6.908,-15.774 2.708,-7.008 4.924,-14.361997 8.464,-21.059997 3.52,-6.661 11.32,-12.369 18.988,-14.079 6.919,-1.543 9.729,8.596 14.94,5.224 4.428,-2.863 10.348,-2.996 15.51,-4.716 4.924,-1.641 10.33,-3.454 14.419,-0.359 3.285,2.488 8.303,0.247 10.994,2.9 5.987,5.904 13.17,10.445 18.207,17.363 5.64,6.853997 9.667,14.583997 12.112,23.211997 6.134,21.635 5.81,45.275 -1.53,66.248 -4.164,11.896 -13.958,20.907 -21.658,30.64 -3.229,4.081 -3.602,8.647 -9.733,11.178 -6.58,2.716 -8.009,12.732 -15.574,12.153 l -25.034,17.658 c -8.511,1.248 -17.267,5.24 -25.818,1.992 z m 50.146,-16.32 c 3.543,-0.868 5.976,-3.017 8.912,-4.717 3.961,-2.295 7.991,-5.78 11.628,-9.193 3.352,-3.146 5.932,-7.085 7.88,-10.958 2.578,-5.127 3.308,-11.73 6.937,-16.697 5.136,-7.028 5.433,-16.411 4.093,-24.348 -1.327,-7.857 -1.368,-17.655 -8.519,-23.537 -5.351,-4.402 -11.222,-4.652 -17.177,-1.576 -6.363,3.287 -13.358,7.067 -16.799,13.38 -2.445,4.486 -3.593,9.646 -4.06,14.97 -0.634,7.233 -4.871,13.812 -4.06,21.06 0.819,7.305 -0.032,14.137 -0.979,21.331 -0.744,5.659 1.065,11.086 3.517,15.717 1.447,2.732 5.531,5.325 8.627,4.567 z"
     fill="url(#prefix__h)"
     id="path41"
     style="fill:url(#prefix__h)" />
  <path
     d="m 477.99507,238.82811 c -10.112,0.461 -16.487,13.402 -10.875,21.75 0.475,2.737 2.035,5.048 3.437,7.406 -5.576,1.102 -11.192,6.02 -16.844,4.125 -6.976,-5.688 -20.476,-4.346 -22.718,5.532 -1.913,5.541 -0.32,11.882 1.093,17 -8.631,-1.04 -20.32,2.675 -21.25,12.656 -1.287,7.1 3.686,13.345 6.47,19.031 -0.69,6.04 -7.87,4.405 -11.063,8.25 -9.967,8.272 -8.431,24.113 -0.22,33 2.589,3.213 5.803,5.914 9.345,8.031 -4.184,8.756 -13.6,17.647 -10.282,28.125 3.685,9.208 17.935,11.88 23.875,3.47 2.087,-1.275 4.761,-6.885 5.532,-2.063 6.24,9.378 19.553,10.063 29.562,7.875 17.218,-4.16 32.077,-15.708 42.094,-30 7.738,14.527 19.074,30.31 36.562,32.843 4.316,0.317 8.852,-2.71 12.813,-2.093 5.415,6.543 14.746,3.362 20.687,-0.563 8.776,-4.874 15.22,-12.61 21.282,-20.469 8.447,6.86 20.892,13.446 31.312,6.5 4.742,-2.576 8.685,-6.375 12.844,-9.78 6.207,8.87 17.311,17.617 28.75,13.78 8.766,10.66 25.438,11.215 37.625,6.438 6.911,-1.91 11.388,-7.75 16.594,-12.219 1.506,10.582 8.386,21.282 19.593,23.25 9.921,3.352 21.54,-0.374 27.874,-8.57 1.926,-1.243 3.181,-4.62 5.251,-1.68 6.42,3.455 12.53,10.045 20.5,8.125 8.068,-1.962 15.049,-7.87 20.094,-14.219 2.009,-4.395 3.286,-9.908 8.406,-11.53 2.263,-4.16 4.085,-0.324 6.165,2.216 7.724,9.757 20.063,19.6 33.367,15.94 14.243,-4.37 17.787,-22.314 13.437,-35.032 -2.701,-8.722 -10.875,-14.055 -16.344,-20.875 -3.11,-2.84 -7.804,-5.575 -10.718,-7.531 15.876,-0.3 30.364,-14.759 28.75,-30.969 0.237,-10.223 -10.561,-16.634 -19.75,-17.187 9.75,-7.147 11.423,-23.115 2,-31.313 -7.486,-8.589 -21.698,-13.482 -31.268,-5.348 -7.71,5.068 -16.246,13.355 -26.107,11.38 -3.868,-2.643 -9.686,-0.084 -12.188,-4.813 -7.673,-6.615 -13.471,-16.388 -23.906,-18.781 -7.088,-2.105 -14.627,-1.437 -21.813,-0.844 -8.67,2.06 -13.04,13.47 -7.312,20.5 2.628,3.622 5.89,8.315 2.75,12.625 -5.18,13.642 -12.57,26.44 -17.594,40.031 -3.987,-10.236 -20.1,-9.501 -24.281,0.281 -0.467,-1.752 0.704,-8.311 1.002,-11.913 1.813,-16.287 5.281,-33.523 1.498,-49.712 -3.812,-5.279 -10.54,-7.542 -14.25,-12.906 -6.062,-4.83 -15.368,-4.617 -21.313,0.25 -12.016,-0.636 -17.4,12.207 -26.437,17.563 -8.514,5.477 -18.161,10.01 -28.281,11.687 -6.66,-10.247 -20.45,-17.674 -32.344,-12.031 -9.254,3.1 -17.09,14.777 -11.125,23.969 2.463,6.35 4.477,13.173 9.281,18 0.539,6.16 -2.101,12.23 -2.01,18.49 -2.343,17.511 -5.799,35.164 -13.865,50.853 -12.009,-3.254 -22.852,-13.043 -29.844,-21.343 12.347,-1.085 23.659,-14.527 18.313,-26.844 -0.563,-2.319 -4.624,-3.79 -2.031,-6.125 2.833,-6.186 6.449,-13.266 3.25,-19.938 2.88,-4.212 4.035,-9.823 4.5,-15.03 2.866,-10.768 -7.836,-18.505 -15.688,-23.5 -6.262,-3.703 -13.639,-5.65 -20.969,-5.126 -0.322,-8.125 -6.894,-14.6 -14.625,-16.156 -9.04,-3.577 -18.888,-4.74 -28.593,-4.469 z"
     id="path43" />
  <path
     d="m 465.62007,225.01611 c -10.112,0.46 -16.487,13.401 -10.875,21.75 0.475,2.736 2.035,5.047 3.437,7.406 -5.576,1.102 -11.192,6.02 -16.844,4.125 -6.976,-5.689 -20.476,-4.346 -22.718,5.531 -1.913,5.542 -0.32,11.883 1.093,17 -8.631,-1.039 -20.32,2.676 -21.25,12.656 -1.287,7.1 3.686,13.346 6.47,19.032 -0.69,6.04 -7.87,4.404 -11.063,8.25 -9.967,8.272 -8.431,24.112 -0.22,33 2.589,3.213 5.803,5.913 9.345,8.03 -4.184,8.756 -13.6,17.647 -10.282,28.126 3.685,9.207 17.935,11.879 23.875,3.469 2.087,-1.275 4.761,-6.885 5.532,-2.063 6.24,9.378 19.553,10.063 29.562,7.875 17.218,-4.16 32.077,-15.708 42.094,-30 7.738,14.528 19.074,30.31 36.562,32.844 4.316,0.316 8.852,-2.71 12.813,-2.094 5.415,6.544 14.746,3.362 20.687,-0.562 8.776,-4.874 15.22,-12.61 21.282,-20.47 8.447,6.86 20.892,13.447 31.312,6.5 4.742,-2.575 8.685,-6.375 12.844,-9.78 6.207,8.87 17.311,17.618 28.75,13.78 8.766,10.66 25.438,11.215 37.625,6.438 6.911,-1.91 11.388,-7.75 16.594,-12.218 1.506,10.581 8.386,21.282 19.593,23.25 9.921,3.352 21.54,-0.375 27.874,-8.57 1.926,-1.243 3.181,-4.62 5.251,-1.68 6.42,3.454 12.53,10.044 20.5,8.125 8.068,-1.962 15.049,-7.87 20.094,-14.22 2.009,-4.394 3.286,-9.907 8.406,-11.53 2.263,-4.16 4.085,-0.323 6.165,2.216 7.724,9.758 20.063,19.601 33.367,15.94 14.243,-4.37 17.787,-22.314 13.437,-35.031 -2.701,-8.723 -10.875,-14.055 -16.344,-20.875 -3.11,-2.84 -7.804,-5.576 -10.718,-7.532 15.876,-0.3 30.364,-14.758 28.75,-30.968 0.237,-10.223 -10.561,-16.635 -19.75,-17.188 9.75,-7.147 11.423,-23.114 2,-31.312 -7.486,-8.59 -21.698,-13.483 -31.268,-5.348 -7.71,5.067 -16.246,13.355 -26.107,11.379 -3.868,-2.642 -9.686,-0.083 -12.188,-4.813 -7.673,-6.614 -13.471,-16.388 -23.906,-18.78 -7.088,-2.106 -14.627,-1.438 -21.813,-0.845 -8.67,2.06 -13.04,13.471 -7.312,20.5 2.628,3.622 5.89,8.315 2.75,12.625 -5.18,13.642 -12.57,26.441 -17.594,40.032 -3.987,-10.237 -20.1,-9.502 -24.281,0.28 -0.467,-1.751 0.704,-8.31 1.002,-11.913 1.813,-16.287 5.281,-33.523 1.498,-49.711 -3.812,-5.28 -10.54,-7.543 -14.25,-12.906 -6.062,-4.83 -15.368,-4.618 -21.313,0.25 -12.016,-0.636 -17.4,12.206 -26.437,17.562 -8.514,5.477 -18.161,10.011 -28.281,11.688 -6.66,-10.247 -20.45,-17.674 -32.344,-12.032 -9.254,3.1 -17.09,14.777 -11.125,23.97 2.463,6.35 4.477,13.173 9.281,18 0.539,6.16 -2.101,12.23 -2.01,18.49 -2.343,17.51 -5.799,35.163 -13.865,50.853 -12.009,-3.254 -22.852,-13.043 -29.844,-21.344 12.347,-1.084 23.659,-14.527 18.313,-26.844 -0.563,-2.318 -4.624,-3.789 -2.031,-6.125 2.833,-6.186 6.449,-13.266 3.25,-19.937 2.88,-4.212 4.035,-9.824 4.5,-15.031 2.866,-10.767 -7.836,-18.505 -15.688,-23.5 -6.262,-3.702 -13.639,-5.65 -20.969,-5.125 -0.322,-8.125 -6.894,-14.601 -14.625,-16.157 -9.04,-3.577 -18.888,-4.74 -28.593,-4.468 z"
     id="path45" />
  <path
     d="m 468.37007,231.10911 c -6.7,-1.405 -12.988,7.143 -7.938,12.47 -0.192,5.934 6.934,10.899 7.344,15.374 -9.622,-0.465 -17.78,6.29 -27.125,6.563 -4.038,-3.67 -11.662,-7.594 -15.656,-1.688 -2.92,6.762 -0.037,14.577 2.875,20.781 0.721,1.402 4.143,4.533 3.187,4.72 -7.157,-2.989 -15.907,-3.35 -23.187,-0.813 -6.868,4.76 -2.514,14.59 2.03,19.28 3.643,4.142 -0.959,8.923 -2.25,13 -2.194,3.046 -6.972,1.237 -9.437,4.376 -6.62,4.696 -6.786,14.108 -2.562,20.437 2.98,6.05 8.514,12.085 15.812,11.907 -3.61,9.396 -10.229,17.678 -13.906,26.75 0.194,5.94 7.685,11.39 12.688,6.625 8.718,-6.771 15.065,-15.988 22.406,-24.188 8.063,-9.831 14.779,-21.348 19.969,-32.531 2.747,-0.74 3.987,0.245 5.156,2.656 2.682,3.383 9.044,7.67 4.375,12.188 -7.944,11.651 -17.922,22.119 -30.094,29.312 -4.14,2.426 -7.906,9.314 -2.531,12.375 4.909,2.526 9.931,4.668 15.656,3.406 21.628,-2.495 38.953,-18.656 49.188,-36.968 7.411,15.266 16.592,32.567 33.406,38.687 6.47,0.73 12.975,-2.562 18.969,-3.219 -0.322,4.437 4.846,6.928 8.187,4.125 13.295,-4.35 22.347,-16.844 29.375,-27.375 3.952,6.725 11.937,9.147 18.25,12.938 9.24,2.096 16.274,-6.335 22.969,-11.287 1.797,-1.448 3.799,-3.785 5.531,-4.588 2.663,7.791 9.67,13.42 16.625,17.312 4.075,1.754 9.15,0.023 12.313,-1.812 5.428,11.566 20.424,12.255 31.218,9.094 6.402,-1.361 11.977,-5.895 15.063,-11.282 6.306,-0.695 8.91,-10.547 2.531,-13.062 -1.326,-1.88 -1.992,-6.599 1.406,-5.563 7.46,-1.932 12.404,-8.855 17.657,-14 2.304,-2.446 5.22,-6.39 7.093,-8.156 -2.516,7.125 -5.307,14.593 -9.312,20.844 -9.874,6.838 -9.022,20.803 -5.156,30.781 2.066,5.004 6.331,9.439 11.812,9.625 4.783,3.567 10.468,1.738 15.531,-0.125 4.763,-0.11 5.436,-5.946 9.344,-7.344 2.986,-2.452 2.502,-8.477 4.406,-10.312 2.204,3.053 2.752,7.437 6.657,9.219 4.138,1.886 7.463,5.056 11.343,7.156 7.278,1.97 12.942,-4.573 18.313,-8.313 3.67,-3.12 4.538,-8.31 6.312,-12.187 7.266,-4.153 13.626,-11.309 18.157,-17.438 -0.85,2.94 -4.794,5.875 -2.782,9.563 2.213,5.588 7.87,8.496 10.938,13.375 6.131,6.134 16.67,10.806 24.906,6.25 5.565,-5.138 9.092,-13.736 6.313,-21.25 0.434,-5.334 -2.001,-10.413 -6.532,-13.188 -4.37,-4.42 -7.38,-10.325 -13.153,-13.291 -6.693,-3.152 -13.45,-10.5 -21.44,-8.146 -2.075,1.334 -1.614,0.49 0.062,-0.813 3.222,-2.271 5.897,-7.154 9.594,-7.53 10.149,4.441 22.796,0.533 28.531,-8.907 3.308,-3.193 4.075,-8.136 3.281,-12.188 2.756,-6.994 -5.59,-11.72 -11.312,-12.875 -5.917,-0.22 -11.813,-1.228 -17.688,-1.218 -7.546,0.599 -12.95,7.301 -20.593,7.312 11.416,-6.464 24.833,-10.151 34.718,-19 5.481,-5.788 5.543,-15.983 -1.28,-20.781 -5.268,-6.379 -16.237,-10.926 -22.938,-4.063 -9.098,6.25 -18.954,13.82 -30.5,12.813 -3.242,-2.615 -8.107,-3.34 -11.625,-1.656 -1.938,-6.472 -9.444,-8.71 -12.5,-14.5 -6.281,-7.041 -16.414,-11.616 -25.813,-8.532 -4.145,-1.417 -9.816,-0.388 -10.562,4.688 -1.604,7.144 7.909,10.955 6.156,18.312 -1.422,11.041 -8.94,19.925 -12.321,30.4 -6.582,14.98 -12.901,30.079 -19.398,45.1 -0.669,-9.692 1.385,-19.406 1.781,-28.875 -1.986,-6.265 -12.204,-5.376 -13.718,0.782 -3.557,5.629 -8.018,10.604 -12.032,15.875 -1.38,-25.721 6.652,-51.15 4.532,-76.782 -1.865,-4.7 -8.208,-4.797 -10.282,-9.406 -3.788,-4.34 -10.867,-7.686 -15.593,-2.906 -2.295,1.07 -4.197,2.653 -6.688,1.531 -8.836,1.579 -12.27,11.239 -19.781,15.313 -10.48,7.519 -23.193,12.468 -35.531,15 -3.555,-3.59 -5.824,-8.423 -10.22,-11.25 -8,-6.72 -21.72,-3.573 -26.374,5.625 -2.31,4.21 0.687,8.171 2.844,11.53 0.522,4.787 2.24,9.352 6.406,12.063 3.519,6.419 -0.436,13.969 -0.156,20.907 -2.273,20.683 -7.47,42.501 -16.875,60.312 -6.03,-1.366 -12.278,-2.544 -17.313,-6.625 -12.537,-7.462 -22.025,-18.868 -32.094,-28.969 0.925,-2.799 4.627,-4.23 6.22,-1.125 6.708,4.965 16.849,2.233 20.843,-4.843 5.245,-4.994 2.76,-15.024 -4.688,-16.063 -2.615,-0.922 -4.697,-1.356 -0.843,-1.812 4.472,-1.146 7.376,-5.685 6.875,-10.063 4.705,-3.237 1.866,-10.231 -0.532,-13.406 4.14,-2.547 6.973,-7.878 5.188,-12.531 4.082,-4.706 -0.255,-11.224 -4.75,-13.657 -7.96,-7.921 -20.594,-12.856 -31.344,-7.687 0.375,-5.607 1.808,-14.043 -5.156,-16.313 -8.911,-4.426 -18.835,-6.639 -28.781,-6.25 z m 19.468,55.22 c 3.05,0.254 9.424,0.234 10.532,1.155 -3.292,1.694 -6.749,3.826 -10.438,4.063 0.459,-1.498 -2.388,-5.644 -0.094,-5.219 z m 289.688,0.437 c 2.266,2.997 6.426,5.732 8.281,8.093 -6.82,3.943 -10.159,11.976 -17.562,15.375 -4.784,2.514 -6.742,7.676 -7.063,12.75 -1.129,3.735 -3.721,8.135 -0.656,11.657 -2.338,0.203 -5.47,6.096 -5.219,1.593 -0.254,-5.865 -2.69,-12.56 -0.486,-18.086 8.627,-9.682 17.357,-19.63 22.549,-31.57 z m -132.906,41.187 c 0.377,3.02 1.268,5.963 -2.344,3.688 -1.484,-0.836 -4.985,-0.114 -5.438,-0.125 2.6,-0.89 5.762,-2.58 7.782,-3.563 z m -43.532,8.188 c 2.354,4.76 8.432,7.615 12.313,8.718 -4.616,2.663 -10.466,4.276 -15.875,2.25 -3.785,0.235 2.795,-7.102 2.735,-9.785 0.357,0.02 0.392,-2.404 0.827,-1.183 z m 212.532,3.468 c -1.65,2.608 1.91,6.875 -2.349,7.288 -5.298,2.3 -12.016,4.586 -16.745,5.775 5.876,-4.85 13.495,-8.846 19.094,-13.063 z m -43.532,2.97 c 2.286,2.247 5.464,4.353 8.313,4.968 -3.961,2.129 -8.771,2.966 -11.813,6.562 -3.344,1.956 0.95,-3.95 1.188,-5.5 1.134,-1.511 1.419,-5.638 2.312,-6.03 z"
     fill="#ffffff"
     id="path47" />
  <path
     d="m 469.49407,237.23411 c -3.901,0.082 -6,0.5 -4.5,2 1,1 6.407,4 3.407,4 -1.382,0 -3.352,-1 -1.344,2 2.43,3.631 7.68,13.369 8.844,15.5 3.007,5.504 -6.158,3.5 -11.5,4.5 -5.31,0.994 -13.91,4.406 -19,6 -3.249,1.017 -6.187,0.808 -8,-0.5 -6,-4.33 -7.985,-5.83 -7.532,-1.5 0.946,9 2.469,13.052 6.532,16 1.378,1 1.371,2 1.593,4 0.664,5.977 -1.046,21 -5.593,30 -1.51,2.988 -8.999,7.574 -13,9 -4.002,1.426 -4.998,0.38 2.093,-5.625 2.763,-2.34 5.407,-5.49 7.907,-8.906 2.534,-3.464 5.002,-5.481 4.906,-8.938 -0.172,-6.171 -3.287,-11.902 -13.906,-11.531 -5.677,0.198 -9.498,-0.629 -10,1 -0.617,2 1.39,7 5.625,12 1.828,2.158 1.875,4 1.375,6 -0.697,2.786 -4.942,13.605 -7,15 -2.058,1.395 -5.288,0.868 -7.47,2 -3.866,2.007 -5.798,6.424 -2.53,12.437 3,5.522 6.592,9.996 10.062,10 3.815,0.005 6.938,-5.437 9.656,-10.875 1.77,-3.539 5.474,-8.63 7.282,-9.562 1.807,-0.933 1.278,2.071 -1.688,8.531 -3.335,7.265 -6.009,14.415 -9.312,21.469 -3.304,7.054 -6.846,14.194 -11.688,21 -3.829,5.382 2.2,-0.32 2.688,0 0.487,0.32 -1.73,3.09 -2,3.594 -1,1.865 0.752,1.503 5.312,-3.282 12.206,-12.807 23.973,-26.566 32.281,-42.28 3.991,-7.549 5.547,-14.875 8.407,-23.032 2.86,-8.157 6.012,-16.988 8.843,-25.188 1.071,-3.102 -2.62,-3.715 -1.843,-5.812 0.74,-2 2.12,-1.88 3,-1 2,2 1.336,9.09 0,14 -1.217,4.47 -2.562,9.943 -5,16 -2.438,6.057 -5.313,12.105 -3,13 2.207,0.855 5,-5 7,-5 1.93,0 -0.48,5.656 1,8 2.96,4.688 9,10.183 9,14 0,6 -12,18 -20,27 -2.484,2.79 -11.763,9.175 -16,12 -6,4 6.446,-0.259 7,1 0.44,1 -8.025,3 -2.5,3 6.486,0 12.23,-0.618 17.5,-3 5.27,-2.382 10.08,-5.72 12,-7 6,-4 12.226,-10.88 17,-18 4.773,-7.12 7.5,-14 9,-14 3,0 4.462,7.274 8,14 2.555,4.859 9.889,16.73 14,21 4.11,4.27 9,7 12,9 l 14.625,-3 c 4.386,-0.546 9.166,-3.95 11.375,-9 1.488,-3.403 -3.864,-1.276 -9.813,-3.969 -7.554,-3.42 -14.742,-7.919 -21.187,-13.031 -6.445,-5.112 -11.826,-11.558 -17.657,-17.594 -1.932,-2 -3.967,-4.096 -5.906,-5.25 -1.917,-1.141 -0.389,-4.723 0.781,-7 2.34,-4.554 7.834,-7.973 12.907,-3.75 2.958,2.463 4.709,2.594 6.875,2.594 4,0 4.496,-2.345 6,-4 2.38,-2.622 4.646,-4.978 1.375,-6.813 -3.927,-2.202 -12.959,-4.16 -16.375,-3.625 -5.37,0.841 -6,2.438 -7,-0.562 -0.88,-2.638 -0.985,-5.567 0.625,-9 1.907,-4.069 14.493,-0.37 17.906,-0.469 1.706,-0.05 4.165,-0.924 4.469,-2.156 1,-4.063 -1.527,-2.804 -1,-5.875 0.497,-2.899 3,0.986 4,-1.938 0.56,-1.639 -5.441,-9.355 -11,-8.562 -7.003,1 -17.825,4.59 -22.094,7.531 -4.775,3.29 -12.714,3.23 -13.906,2.469 -1.568,-1 -0.87,-5.92 -2.875,-10.531 -1.457,-3.347 -4.125,-3.469 -5.125,-4.469 -1,-1 2.461,-1.927 6,-2 7.077,-0.146 21.206,0.92 24.5,2.187 4.215,1.622 12.293,4.095 17.5,2.813 2.603,-0.641 7.678,-3.017 9,-5 2,-3 -2,-5 -2,-7 0,-2.432 6,-1 3,-4 -1.627,-1.627 -4.621,-4.197 -7,-6 -4.76,-3.607 -10.391,-6.37 -14.313,-5.688 -7.324,1.274 -12.22,3.612 -14.687,0.688 -1.234,-1.462 -1,-7 -1,-10 0,-2.647 1.308,-3.846 -1,-5 -6,-3 -13.742,-5.906 -21.47,-6 a 138.05,138.05 0 0 0 -4.437,0 z m 197.313,5.5 c -1.187,0.074 -0.363,3.127 -1.75,3.5 -0.688,0.185 -1.144,-1.347 -2.125,-1.313 -0.982,0.035 -1.864,2.263 -3.156,2.313 -2.585,0.1 -5.219,-1.21 -6.907,0.469 -4,3.979 -11.084,11.001 -17.593,15.687 -5.37,3.755 -22.875,10.84 -30.875,13.375 -2.132,0.676 -8,1.469 -10,-1.531 -2.869,-4.303 -10,-13 -15,-13 -3,0 -11.657,3.281 -11.657,6.281 0,4 3.657,3.719 3.657,7.719 0,5 2.643,7.088 5,9.445 4,4 2.822,10.839 2.062,17.18 -1.942,16.216 -3.787,32.42 -9.125,48.062 -4.65,13.625 -11.267,26.37 -15.906,39.813 10.855,-3.746 17.84,-12.625 24.031,-22.313 8.302,-12.992 15.157,-26.918 20.281,-41.562 1.414,-4.041 4.093,-14.743 5.344,-14.625 0.885,0.083 0.857,3.635 0.25,7.719 -0.83,5.585 1.147,11.522 4.594,15.187 3.231,3.436 7.34,4.85 9.875,1.875 2.021,-2.371 3.458,-5.64 3.594,-2 0.165,4.431 -0.986,3.728 -1.907,10.344 -0.677,4.872 -3.093,4.536 -7.093,6.219 -2.513,1.056 -4.536,2.238 -7.344,2.656 -3.051,0.455 -5.904,-1.712 -8.656,-1 -2.194,0.568 -3.728,2.52 -5.344,3.562 -1.338,0.864 0.852,3.576 0.344,4.938 -0.652,1.748 -2.956,2.68 -2.375,4 1.83,4.162 8.534,6.589 12.78,9.5 2.927,2.006 3.591,2.1 6.595,0.656 10.73,-5.159 19.142,-16.633 30,-22.062 2,-1 3.01,0.406 1.593,2.406 -1.295,1.828 -3.728,4.182 -3.593,7 0.171,3.604 4,7 8,11 2.71,2.71 5.135,4.32 7.53,4.25 4.15,-0.122 7.791,-4.19 8.063,-8.25 0.201,-2.994 -0.221,-6.3 1.157,-3.75 3.961,7.335 3.473,12.64 5.25,14.75 4.654,5.527 12,7 25.28,3.344 4.32,-1.19 7.788,-3.985 9.282,-9.063 0.829,-2.817 4.68,-1.523 5.438,-2.281 0.726,-0.726 -0.162,-1.26 -2,-2.75 -1.234,-1 -1.902,-1.58 -2,-3.25 -1,-17 -4.12,-33.543 -0.094,-50.563 0.886,-3.745 -0.651,-4.555 -2.406,-1.437 -2.986,5.304 -12.161,15.887 -14.907,19.969 -4.976,7.4 -5.273,11.376 -6.593,8.031 -2.074,-5.253 -2.224,-21.921 -1.938,-27.688 0.788,-15.882 3.585,-31.517 4.531,-47.343 0.202,-3.367 1.428,-11.452 0.407,-13.969 -1.456,-3.588 -1.294,0.952 -2.657,-0.594 -3,-3.404 -3.928,-5.745 -10.75,-10.406 -0.539,-0.369 -0.913,-0.517 -1.187,-0.5 z m 81.594,4.656 c -1.334,0.003 -3.691,0.376 -5.441,1.417 -0.666,0.397 -4.004,-2.018 -5.004,-1.018 -1.26,1.259 3.274,5.713 4.945,9.257 4.29,9.103 -1.477,18.496 -5.563,27.407 -9.85,21.481 -18.354,43.583 -28.437,64.937 -2.628,5.565 -1.115,7.114 2.5,4.844 5.215,-3.276 13.91,-13.037 16.062,-15.844 2.436,-3.176 8.861,-10.08 11.938,-13.156 4,-4 4,0 2.968,9 -1.47,9.866 -5.968,15 -8.968,25 -0.422,1.407 -1.7,4.225 -4.242,5.698 -4.05,2.346 -5.248,6.302 -5.248,12.302 0,5.573 1.747,11.343 4.49,15 3,4 2,-0.503 4,0 1.157,0.29 1.976,2.589 3,3 2.088,0.839 4.689,1.745 6.32,0.328 2.68,-2.328 2.631,-0.462 5.222,-1.328 2.991,-1 0.722,-2.528 1.458,-4 1,-2 3.824,-0.441 5,-2 0.9,-1.193 0.29,-4.228 1,-6 1.052,-2.63 3,-3 3,-6 0,-4.47 -0.91,-10.535 0,-16 0.927,-5.567 4.224,-13.448 6,-17 2,-4 0,-4 -2,-2 -3.04,3.04 -6.237,6.186 -8,7.504 -1.12,0.837 -2.26,1.04 -3,-1.504 -0.583,-2.005 -2.192,-23.957 -3,-28 -0.403,-2.012 1.265,-3.452 3.507,-6 3.33,-3.784 8.888,-9.04 14.305,-17.219 5.692,-8.593 10.188,-17.781 10.188,-27.781 0,-4 -2.776,-3.623 -5,-6 -2.28,-2.434 -4.654,-5.21 -6.594,-7.313 -6.336,-6.863 -10.382,-7.544 -15.406,-7.53 z m 80.555,9.844 c -11.555,8 -21.048,15.676 -35.555,16 -4.768,0.106 -5.462,-3 -8,-3 -2,0 1.477,3 -1,3 -1.275,0 -2,-2.545 -4,-2 -2.313,0.63 -3,5 -0.97,8.125 2.37,3.644 8.97,9.875 12.97,12.875 4.228,3.171 6.974,1.569 11,-1 2.24,-1.43 5.635,-4.093 9,-6 5.968,-3.383 5.723,-1.567 2,1 -4.944,3.409 -22.07,13.389 -24,15 -1.717,1.433 0,-2.507 -2,-1 -4.718,3.555 -7.285,7.68 -11,11 -2.59,2.313 -6.442,3.461 -9,7 -1.395,1.928 -1.167,6.143 -1.535,8 -0.439,2.222 -3.557,4.145 -0.465,6 5,3 9.085,7.624 13,9.534 1.249,0.61 3.135,-1.422 5,-2.534 1.412,-0.842 3.373,-0.984 5,-2 3.36,-2.1 8.743,-6.717 11,-8 2.878,-1.637 2.185,0.968 -1.625,5.312 -5.994,6.833 -12.378,15.023 -19.375,19.688 -3,2 -1,-1 -4,1 -2.448,1.632 -4.73,3.553 -8,5 -3.023,1.337 -3.663,2.211 -3,3.728 0.367,0.843 -1,1.679 -1,3.272 0,1.678 0.95,1.887 1,2.765 0.12,2.12 -1.318,3.728 -0.512,5.612 0.79,1.847 2.971,4.032 4.512,5.093 3,2.064 -2,1.53 2,5.056 1.636,1.98 4.331,2.217 6,3.474 2.737,2.062 4.444,4.464 7,4 1.348,-0.245 2.35,-1.59 3.506,-2.466 2.024,-1.534 1.494,-0.044 6.494,-4.534 5.26,-4.724 3,-7 4,-9.49 0.796,-1.983 2.382,-3.245 4,-4.055 5.006,-2.504 9.263,-6.964 13,-11.455 3.373,-4.055 8.178,-12.545 10.178,-9.545 1.569,2.353 2.8,6.31 3.822,8.545 1.53,3.35 -0.502,4.519 -2,6 -2.543,2.513 -1,3 4,8 1.388,1.389 4.123,5.874 6,7 6.331,3.798 15.168,7.493 17,2 1,-3 3.496,-5.346 3.477,-8 -0.014,-1.876 -1.166,-3.638 -1.477,-6 -0.205,-1.553 0.636,-3.788 0,-5 -1.12,-2.132 -3.513,-2.635 -5,-4.51 -2.54,-3.199 -4.772,-7.168 -7.313,-9.178 -4.799,-3.795 -18.954,-12.364 -19.954,-11.023 -0.953,1.277 1.899,2.079 1.267,2.711 -1,1 -3.883,-2.329 -5,-1 -0.582,0.692 -0.185,2.383 1,3.51 2.049,1.95 4,2.49 1.156,3.646 -11.156,6.844 -25.546,9.502 -38.156,14.625 -3,1.219 -1.442,-2.72 -1,-4.258 2.08,-7.25 12.506,-14.07 18.875,-17.992 7.568,-4.66 18.605,-14.478 25.125,-20.997 2,-2 2,-1.534 8,0.921 3.325,1.361 8.534,1.428 12,-0.455 4.401,-2.392 7.99,-6.98 10,-11 1,-2 -2.078,-2.543 -2,-4 0.073,-1.372 3,-2 2,-4 -0.693,-1.385 -4.386,-2.298 -6,-3 -4.598,-2 -6.067,-0.373 -9,-0.555 -2.017,-0.126 -2.986,-1.02 -6,-1.132 -5.407,-0.2 -9.187,3.336 -14,5.687 -3.46,1.69 -8.284,1.225 -12,2 -10.977,2.29 -21,9 -29.844,14.906 -2.01,1.343 -2.334,-2.16 -1.618,-3.906 1.68,-4.096 9.716,-8.317 13.305,-11 9.472,-7.082 22.47,-13.805 33.157,-19 5.88,-2.859 9.82,-3.785 15,-7.503 3.479,-2.497 5.93,-5.916 6,-8.497 0.12,-4.449 -4.27,-7.477 -9,-11 -2,-1.49 -5.274,-2.504 -7.445,-1 z m -178.555,11 c 4.661,0.313 2,14 1,17 -1,3 -3,-2 -7.813,-7.063 -2.65,-2.787 -7.54,-4.527 -9.437,-3.53 -8.75,4.593 -20.194,16.52 -26.75,23.593 -1.052,1.135 -1.558,3.847 1,3 3.697,-1.225 5.879,-1.491 9,-2 3,-0.489 5.49,7 4.5,8 -1.482,1.497 -3.48,4.656 -5.157,4.656 -2.108,0 -3.576,-2.418 -5.343,-3.656 -2.027,-1.419 -4.684,-2.172 -6,-4 -1.361,-1.89 -1.003,-4.704 -1,-8 0.002,-3.027 -0.285,-5.904 2,-9 5.193,-7.082 16.805,-9.707 24,-12.555 5,-1.979 9.23,-3.371 14,-4.445 3.998,-0.9 2.442,-2.239 6,-2 z m -1,25 c 1.35,3.152 0.98,9.005 0.468,12.656 -0.468,3.344 -3.808,-2.697 -8.468,-2.687 -2.41,0.005 -5.255,1.773 -6.625,1.031 -1.372,-0.743 -0.712,-2.723 -0.97,-4 -0.21,-1.042 -3.297,-2.035 -2.968,-3 0.474,-1.39 3.31,-0.985 5.938,-1.625 2.241,-0.546 4.371,-0.493 6.718,-1.781 l 2.907,-1.594 c 1.523,-0.835 2.336,-0.547 3,1 z m -12,16.748 c 1.818,0.021 3.235,2.58 2.78,4.94 -0.366,1.904 -4.705,4.15 -6.78,4.312 -1.404,0.109 -2.347,-1.95 0.731,-7 0.61,-1 1.995,-2.267 3.269,-2.252 z m -154.563,1.002 a 0.893,0.893 0 0 1 0.563,0.25 c 3.61,3.343 -3.21,12.393 -10.313,13.437 -7.2,1.06 -14.555,-0.401 -5.687,-7.437 2.84,-2.254 6.155,-4.693 8.53,-4.125 3.272,0.782 5.501,-2.205 6.907,-2.125 z m 171.563,37.25 c 0,6 -5.143,-5.758 -12.329,-10.147 -4.671,-2.853 -1.662,0.493 -2.671,1.147 -0.532,0.345 -3.22,-2.18 -4,-1 -1,1.51 6,6 2.687,6.875 -3.453,0.912 -7.213,1.913 -8.172,0.125 -1.85,-3.446 -1.138,-11.512 1.485,-17 1.065,-2.23 3,-1 7,-4 2.092,-1.57 3.545,-1.819 5.03,-3 2.516,-2 -3.477,-2.94 -0.03,-4 0.907,-0.279 3.943,-2.96 4.3,-5 0.7,-4 1.548,-2.993 1.7,-1 0.621,8.143 1.316,15.968 2,24 0.375,4.41 3,8 3,13 z m -33,-32.531 c 1.157,0.976 1.273,2.95 0,4.531 -2.03,2.517 -6.448,3.992 -7,3.344 -2,-2.344 5.495,-9.145 7,-7.875 z m -125,26.531 c 1.894,0 2.917,2.974 1.562,3.656 -1.105,0.557 -4.231,-3.656 -1.562,-3.656 z"
     fill="url(#prefix__i)"
     id="path49"
     style="fill:url(#prefix__i)" />
  <path
     d="m 663.77607,380.26611 c -3.8,-0.23 -5.544,4.73 -9.313,2.812 -4.415,-0.625 -12.738,0.096 -11.812,6.375 1.723,2.672 -2.487,3.5 -2.813,6.063 -1.178,3.815 -7.033,7.137 -3.687,11.53 1.55,2.857 5.185,2.343 7.5,2.5 3.75,2.484 8.39,-0.923 11.594,-0.843 4.933,3.215 10.395,-2.776 9.968,-7.75 0.354,-3.221 1.493,-1.608 3.563,-0.781 -4.813,1.543 -4.482,8.518 0.344,9.844 9.618,3.288 23.056,-2.665 23.062,-13.813 -1.488,-2.93 1.313,-2.526 2.656,-4.375 2.51,-4.938 -3.778,-8.768 -8.218,-7.656 -4.858,0.282 -11.208,-0.098 -15.157,0.312 -1.222,-3.033 -4.534,-4.59 -7.687,-4.218 z m 173.125,0.593 c -3.033,-0.432 -4.025,3.942 -6.969,2.438 -5.8,-0.317 -15.909,-0.307 -16.281,7.5 -0.083,2.68 4.178,3.407 1.594,5.937 -2.74,6.21 1.74,14.122 8.937,13.72 4.9,1.582 13.945,0.326 13.063,-6.47 -1.083,-4.626 -6.809,-4.712 -10.22,-5.687 2.817,-1.533 5.427,-3.972 8.626,-3.031 2.188,-1.013 3.637,-0.774 5.812,0 1.979,0.151 -1.809,3.352 -1.718,4.875 -4.006,4.446 -0.473,14.131 6.062,10.125 2.03,-0.815 2.726,-4.686 4.594,-1.594 7.943,4.721 16.62,-3.237 19,-10.594 2.772,-5.688 -4.585,-12.337 -8.75,-7.062 -1.511,-1.62 -3.18,-2.182 -2.688,-4.75 -0.748,-5.151 -7.446,-4.456 -9.843,-1.938 -1.327,-3.444 -5.548,-3.488 -8.282,-2.844 -0.521,-1.133 -1.947,-0.582 -2.937,-0.625 z m -329.219,1.907 c -7.075,3.327 -7.393,12.187 -9.406,18.78 -0.403,5.79 5.438,9.31 10.656,8.938 7.171,1.372 13.939,-2.992 17.063,-9.25 0.02,-2.287 2.461,-2.167 2.656,-1.156 -4.683,1.99 -4.768,9.89 0.844,10.531 10.83,3.09 23.885,-9.583 18.437,-20.156 -4.8,-4.721 -12.94,-3.099 -18.687,-1.125 -2.31,0.506 -3.093,4.003 -5.375,2.094 -5.935,-1.664 -7.695,5.443 -11.563,7.937 -3.822,0.982 0.141,-4.417 0.656,-5.718 3.593,-4.287 1.187,-12.386 -5.28,-10.875 z"
     id="path51" />
  <path
     d="m 664.40107,384.23411 c -3.192,0.167 -6.972,4.298 -5,7.395 1.376,2.161 6.038,0.68 7.654,-1.395 1.557,-2 1.51,-6.217 -2.654,-6 z m 173,0.59 c -1.567,0.14 -2.773,1.732 -3.243,3.166 -0.469,1.433 -0.152,3.228 1.4,3.338 0.78,0.056 2.25,-1.897 3.03,-3.452 0.78,-1.554 0.82,-3.23 -1.187,-3.051 z m 4.312,0.63 c -1.645,1.09 -1.92,3.453 -1.312,4.78 0.608,1.327 2.09,1.815 3.443,-0.596 0.566,-1.01 1.09,-2.25 0.776,-3.235 -0.313,-0.985 -1.457,-1.911 -2.907,-0.95 z m -176.934,1.78 c 1.362,1.348 -1.378,4 -2.852,2.625 -1.58,-1.475 1.474,-3.988 2.852,-2.625 z m 187.778,-0.906 c -2.673,0.906 -4.209,5.77 -5.784,8.906 -1.718,3.424 -4.366,7.317 -4.688,11 -0.163,1.855 2.108,0.658 3.13,-0.835 1.022,-1.492 2.045,-3.695 2.633,-4.694 0.773,-1.313 1.787,-2.976 3.269,-3.775 1.482,-0.798 3.097,-0.516 1.878,1.523 -1.714,2.866 -2.21,5.447 -0.594,6.781 1.615,1.334 4.94,1.196 7.625,-0.906 2.125,-1.664 4.377,-4.177 5.375,-7.094 1.046,-3.055 0.228,-4.451 -1,-4 -1.228,0.452 -1.79,3.248 -3,5 -0.702,1.016 -1.765,2.793 -3.295,3.688 -1.754,1.028 -3.78,1.059 -2.08,-1.688 1.84,-2.975 2.375,-6 1.375,-7 -1.827,-1.827 -3.784,0.623 -5,0 -0.667,-0.341 0.899,-3.062 1.46,-4.22 0.562,-1.158 0.37,-3.254 -1.304,-2.686 z m -345.031,1.031 c -1.946,2.367 -2.924,6.077 -3.854,9.211 -0.884,2.978 -3.077,8.412 1.729,9.258 3.265,0.575 9.581,1.364 12,-0.594 2.29,-1.853 3.446,-3.806 4.977,-6.092 3.498,-5.223 -1.756,-5.01 -3.51,-0.908 -1.656,3.875 -6.934,6.587 -10.436,4.594 -4.557,-2.594 0.545,-9.728 1.969,-13.095 1.14,-2.698 -1.433,-4.128 -2.875,-2.374 z m 141.214,3.458 c 3.976,-0.205 6.194,0.191 4.002,1.417 -4.243,2.374 0.304,5.85 -0.654,8.125 -1.301,3.094 -7.274,0.833 -7.468,3.79 -0.251,3.826 6.57,1.985 8.78,0.085 1.37,-1.175 2.99,-3.277 3,-5 0.011,-1.723 -1.424,-3.063 -1.623,-4.375 -0.14,-0.93 1.413,-1.28 2.255,-2.948 0.842,-1.667 0.563,-4.65 -1.04,-4.677 -2,-0.033 -4.716,-0.125 -7.591,0 -2.595,0.113 -2.429,3.726 0.339,3.583 z m 182.065,-3.583 c -2.702,0 -7.844,-0.152 -11.31,1.063 -2.502,0.877 -2.182,2.937 -0.68,2.937 1.586,0 3.868,-0.138 5.586,0 2.878,0.233 -3.667,3 -5,6 -1.277,2.874 -1.578,6.888 1.685,8.378 1.122,0.512 5.157,1.428 8.315,1.287 3.158,-0.14 5.44,-1.338 3.031,-3.04 -2.782,-1.965 -12.573,-0.437 -9.59,-6.625 1.23,-2.552 4.604,-3.75 7.062,-5 1.906,-0.968 3.315,-5 0.901,-5 z m -142.404,1 h -13 c -3.107,0 -4,2 0,2 h 13 c 4,0 4,-2 0,-2 z m -155.969,4.125 c -3.922,1.588 -4.657,3.093 -3.031,3.513 1.626,0.42 5.614,-0.245 8.031,-1.106 4.004,-1.427 5.007,3.469 1.969,6.468 -1.344,1.327 -3.874,1.26 -6.03,1.52 -2.155,0.26 -5.686,2.405 -3.97,3.48 2.921,1.83 8.03,0.512 11,-2 2.707,-2.346 4.746,-5.364 5.031,-8.843 0.341,-4.157 -4.048,-3.818 -7.644,-3.818 -1.05,0 -4.393,0.397 -5.356,0.786 z m 140.969,0.348 c -4.354,0.527 -7,4.527 -1,3.527 3.71,-0.618 14.185,-2.036 12,3 -1.17,2.695 -3.89,3.862 -7.906,4.157 -0.96,0.07 -4.094,-0.283 -5.631,0.268 -2.639,0.945 -2.838,2.528 2.537,3.047 5.59,0.54 10.186,-1.38 13.125,-5.347 1.651,-2.229 3.437,-7.511 -1.125,-8.692 -2.466,-0.638 -9.205,-0.3 -12,0.04 z m -12.564,2.086 c -3.137,0.672 -4.481,9.743 -3.396,10.566 1.613,1.224 3.137,-1.29 3.547,-3.232 0.41,-1.943 0.729,-4.178 1.6,-5.736 0.693,-1.239 -0.966,-1.766 -1.751,-1.598 z m -20.686,7.535 c -2.843,3.49 1.383,4.51 3.567,0.906 0.972,-1.604 2.349,-4 3.683,-7 0.9,-2.023 -2.05,-2.634 -2.781,-0.843 -0.957,2.338 -2.675,4.734 -4.47,6.937 z m -371.75,-97.374 -8.157,-14.72 -9.625,7.01 13.046,-18.89 -32.309,-0.562 -1.705,3.442 h -19.566 l -6.438,9.05 -15.246,-0.516 7.307,-12.607 -30.213,0.01 -9.438,12.47 c -8.957,0.23 -17.916,-0.134 -26.875,-0.031 l -4.507,5.625 H 83.151074 c -5.87,8.327 -11.921,16.488 -17.875,24.75 16.448,0.115 32.896,0.195 49.343996,0.25 l 4.842,-5.75 14.598,-0.388 c -9.136,5.992 -20.373,10.068 -31.065,11.856 4.482,7.664 11.309,13.357 16.875,20.157 19.586,-5.28 37.139,-17.02 50.718,-31.907 l 13.76,0.239 c -5.287,5.127 -20.39,12.426 -25.947,16.792 l 20,14.612 c 7.51,-2.897 12.19,-6.108 18.281,-10.018 l 9.951,8.835 c 15.428,-5.055 37.932,-14.268 51.112,-23.929 -5.64,8.125 -11.254,16.269 -16.875,24.407 a 9195.3,9195.3 0 0 0 30.625,-0.031 c 6.426,-8.54 12.52,-18.478 19.218,-26.094 4.77,2.756 13.47,9.562 13.47,9.562 l 14.218,-8.631 45.23,0.403 16.864,-25.115 h -48.125 l -8.256,10.475 c -4.816,-4.88 -10.219,-9.066 -16.838,-11.288 l 11.906,-19.187 h -29.937 z"
     fill="#ffffff"
     id="path53" />
  <path
     d="m 308.40107,281.23411 h -15.956 l -40.138,57.907 16.094,-0.045 20,-27.862 c 6.818,2.902 10,5.48 16.062,10.032 l 16.018,-10.032 c -10.83,-11.123 -17.289,-13.019 -23.455,-11.687 z m -140,1.47 -8.912,12.989 -26.827,-0.084 -9.121,12.822 26.047,-0.067 c -2.628,4.096 -13.879,12.87 -20.443,16.001 -5.213,2.486 -15.958,5.473 -15.958,5.473 l 8.696,9.385 c 16.518,-4.49 36.427,-19.176 46.018,-31.02 l 24.45,-0.043 7.526,-11.945 -22.374,-0.32 7.992,-13.13 -17.094,-0.062 z m 67.281,1.53 -34.289,47.868 7.008,5.575 c 0,0 15.833,-4.61 25.002,-9.132 10.308,-5.083 20.902,-12.626 30.144,-19.498 l -5.146,-9.94 c -6.642,4.587 -20.66,16.764 -28.34,16.93 0,0 16.373,-21.383 22.371,-31.771 z m -21.906,3.344 c -5.375,5.598 -7.978,12.41 -13.188,18.156 -9.135,10.076 -19.066,19.673 -31.26,25.844 l 10.417,7.938 c 11.319,-5.965 30.67,-22.75 37.88,-33.263 3.366,-4.91 8.406,-12.08 10.776,-17.996 z m -127.495996,13.656 -9.293,12.857 34.189996,0.15 8.815,-13.007 z m 248.964996,0 -8.95,12.354 34.319,0.245 8.537,-12.599 z"
     fill="#ff0000"
     stroke="#ffffff"
     stroke-width="0.1"
     id="path55" />
</svg>
