<?xml version="1.0" encoding="utf-8"?>
<!-- Svg Vector Icons : http://www.onlinewebfonts.com/icon -->
<!DOCTYPE svg PUBLIC "-//W3C//DTD SVG 1.1//EN" "http://www.w3.org/Graphics/SVG/1.1/DTD/svg11.dtd">
<svg version="1.1" xmlns="http://www.w3.org/2000/svg" xmlns:xlink="http://www.w3.org/1999/xlink" x="0px" y="0px" viewBox="0 0 1000 1000" enable-background="new 0 0 1000 1000" xml:space="preserve">
<metadata> Svg Vector Icons : http://www.onlinewebfonts.com/icon </metadata>
<g><path d="M833.6,121.9c-12.3-12.3-32.3-12.3-44.6,0c-12.3,12.3-12.3,32.3,0,44.6c183.9,183.9,183.9,483.1,0,667c-12.3,12.3-12.3,32.3,0,44.6c6.1,6.2,14.2,9.2,22.3,9.2c8.1,0,16.1-3.1,22.3-9.2C1042.1,669.6,1042.1,330.4,833.6,121.9z"/><path d="M646.8,305.7c-12.3,12.3-12.3,32.3,0,44.6c82.6,82.6,82.6,216.9,0,299.5c-12.3,12.3-12.3,32.3,0,44.6c6.2,6.2,14.2,9.2,22.3,9.2c8.1,0,16.1-3.1,22.3-9.2c107.2-107.2,107.2-281.5,0-388.7C679.1,293.3,659.1,293.3,646.8,305.7z"/><path d="M467.8,93.2l-309,239.7H85.7c-41.8,0-75.7,33.9-75.7,75.7v184c0,41.8,33.9,75.7,75.7,75.7h73.1l309,238.5c20.9,0,37.8-16.9,37.8-37.8V131.1C505.7,110.1,488.7,93.2,467.8,93.2z M444.8,812.3L183.5,613.2l-11.4-7h-13.3H99.2c-15.6,0-28.4-12.7-28.4-28.4V423.4c0-15.6,12.7-28.4,28.4-28.4h59.6h13.3l11.4-7l261.3-201.6V812.3z"/></g>
</svg>